<svg xmlns="http://www.w3.org/2000/svg" viewBox="0 0 108.626 108.626"><defs><style>.a{fill:#00b1e6;}.b{fill:#fff;}</style></defs><g transform="translate(-1666.377 -4645.51)"><circle class="a" cx="54.313" cy="54.313" r="54.313" transform="translate(1666.377 4645.51)"/><path class="b" d="M63.527,6.3a20.331,20.331,0,0,1-7.759,1.94A12.389,12.389,0,0,0,61.587.97a23.875,23.875,0,0,1-8.244,2.91,13.551,13.551,0,0,0-19.882.97A13.336,13.336,0,0,0,31.036,16,37.049,37.049,0,0,1,3.879,2.425a15.8,15.8,0,0,0-1.94,6.3A13.326,13.326,0,0,0,7.759,19.4,11.519,11.519,0,0,1,1.94,17.943a17.23,17.23,0,0,0,.97,4.849,12.919,12.919,0,0,0,9.7,8.244,8.252,8.252,0,0,1-3.395.485H6.789A12.965,12.965,0,0,0,18.913,40.25a27.552,27.552,0,0,1-16,5.334H0A36.985,36.985,0,0,0,20.367,51.4a36.411,36.411,0,0,0,35.885-29.1,20.993,20.993,0,0,0,.485-7.759V13.093A44.934,44.934,0,0,0,63.527,6.3Z" transform="translate(1689.169 4677.031)"/></g></svg>