<svg id="Layer_1" data-name="Layer 1" xmlns="http://www.w3.org/2000/svg" viewBox="0 0 219.57 219.57"><title>RVSG Prj IconArtboard 7</title><circle id="Ellipse_17" data-name="Ellipse 17" cx="109.78" cy="109.78" r="109.78" style="fill:#0544a8"/><g id="broadcast"><path id="Path_159" data-name="Path 159" d="M162,113.27l-22.79,6.2v-3a9.93,9.93,0,0,0-9.92-9.92H64.81a9.93,9.93,0,0,0-9.92,9.92V154a9.93,9.93,0,0,0,9.92,9.92h64.5a9.93,9.93,0,0,0,9.92-9.92v-3c24.22,6.55,22.83,6.32,23.66,6.32A3.31,3.31,0,0,0,166.2,154h0V116.45a3.31,3.31,0,0,0-4.18-3.19ZM132.61,154a3.31,3.31,0,0,1-3.31,3.31H64.81A3.31,3.31,0,0,1,61.5,154V116.45a3.31,3.31,0,0,1,3.31-3.31h64.5a3.31,3.31,0,0,1,3.31,3.31Zm27-4.35-20.36-5.54V126.31l20.36-5.54Z" style="fill:#fff"/><path id="Path_160" data-name="Path 160" d="M113.8,121.22H81.2a14,14,0,1,0,11.88,6.61h8.85a14,14,0,1,0,11.88-6.61ZM81.2,142.58a7.37,7.37,0,1,1,7.36-7.38h0A7.38,7.38,0,0,1,81.2,142.58Zm32.61,0a7.37,7.37,0,1,1,7.37-7.37h0A7.38,7.38,0,0,1,113.8,142.58Z" style="fill:#fff"/><path id="Path_161" data-name="Path 161" d="M83.19,94.09a3.31,3.31,0,0,0,4.68,4.68,13.63,13.63,0,0,1,19.26,0,3.31,3.31,0,1,0,4.68-4.68A20.26,20.26,0,0,0,83.19,94.09Z" style="fill:#fff"/><path id="Path_162" data-name="Path 162" d="M119.28,85a3.31,3.31,0,0,0,0-4.68h0a30.84,30.84,0,0,0-43.57,0A3.31,3.31,0,0,0,80.39,85a24.22,24.22,0,0,1,34.21,0,3.31,3.31,0,0,0,4.68,0Z" style="fill:#fff"/><path id="Path_163" data-name="Path 163" d="M71.6,72.24a36.61,36.61,0,0,1,51.78,0l0,0a3.31,3.31,0,0,0,4.68-4.68,43.23,43.23,0,0,0-61.13,0l0,0a3.31,3.31,0,1,0,4.68,4.68Z" style="fill:#fff"/></g></svg>