<svg id="Layer_1" data-name="Layer 1" xmlns="http://www.w3.org/2000/svg" viewBox="0 0 219.57 219.57"><title>RVSG Prj IconArtboard 8</title><circle id="Ellipse_16" data-name="Ellipse 16" cx="109.78" cy="109.78" r="109.78" style="fill:#0544a8"/><g id="first-aid-kit"><g id="Group_211" data-name="Group 211"><g id="Group_210" data-name="Group 210"><path id="Path_164" data-name="Path 164" d="M140.1,105a2.27,2.27,0,1,0,2.27,2.27h0A2.27,2.27,0,0,0,140.1,105Z" style="fill:#fff"/></g></g><g id="Group_213" data-name="Group 213"><g id="Group_212" data-name="Group 212"><path id="Path_165" data-name="Path 165" d="M76.62,105a2.27,2.27,0,1,0,2.27,2.27h0A2.27,2.27,0,0,0,76.62,105Z" style="fill:#fff"/></g></g><g id="Group_215" data-name="Group 215"><g id="Group_214" data-name="Group 214"><path id="Path_166" data-name="Path 166" d="M128.77,114.08H117.43V102.74a2.27,2.27,0,0,0-2.27-2.27h-13.6a2.27,2.27,0,0,0-2.27,2.27v11.34H88a2.27,2.27,0,0,0-2.27,2.27v13.6A2.27,2.27,0,0,0,88,132.22H99.29v11.34a2.27,2.27,0,0,0,2.27,2.27h13.6a2.27,2.27,0,0,0,2.27-2.27V132.22h11.34a2.27,2.27,0,0,0,2.27-2.27v-13.6A2.27,2.27,0,0,0,128.77,114.08Zm-2.27,13.6H115.16a2.27,2.27,0,0,0-2.27,2.27v11.34h-9.07V129.95a2.27,2.27,0,0,0-2.27-2.27H90.22v-9.07h11.34a2.27,2.27,0,0,0,2.27-2.27V105h9.08v11.34a2.27,2.27,0,0,0,2.27,2.27h11.34Z" style="fill:#fff"/></g></g><g id="Group_217" data-name="Group 217"><g id="Group_216" data-name="Group 216"><path id="Path_167" data-name="Path 167" d="M155.07,82.35H137.84V68.73a13.62,13.62,0,0,0-13.6-13.6H92.49a13.62,13.62,0,0,0-13.6,13.6V82.35H61.66A11.35,11.35,0,0,0,50.32,93.67v59A11.35,11.35,0,0,0,61.66,164h93.41a11.35,11.35,0,0,0,11.34-11.34v-59A11.35,11.35,0,0,0,155.07,82.35ZM83.42,68.73a9.08,9.08,0,0,1,9.07-9.07h31.74a9.08,9.08,0,0,1,9.07,9.07V82.35h-4.53V71a6.81,6.81,0,0,0-6.8-6.8H94.76A6.81,6.81,0,0,0,88,71V82.35H83.42ZM124.23,71V82.35H92.49V71a2.27,2.27,0,0,1,2.27-2.27H122A2.27,2.27,0,0,1,124.23,71ZM65.28,159.42H61.66a6.81,6.81,0,0,1-6.8-6.8V93.67a6.81,6.81,0,0,1,6.8-6.8h3.63Zm81.62,0h-4.53V116.35a2.27,2.27,0,1,0-4.54,0v43.08H78.89V116.35a2.27,2.27,0,1,0-4.54,0v43.08H69.82V86.87h4.54V98.21a2.27,2.27,0,1,0,4.54,0h0V86.87h58.95V98.21a2.27,2.27,0,0,0,4.54,0V86.87h4.53Zm15-6.8a6.81,6.81,0,0,1-6.8,6.8h-3.63V86.87h3.63a6.81,6.81,0,0,1,6.8,6.8Z" style="fill:#fff"/></g></g></g></svg>