<svg id="Layer_1" data-name="Layer 1" xmlns="http://www.w3.org/2000/svg" viewBox="0 0 219.57 219.57"><title>RVSG Prj IconArtboard 9</title><circle id="Ellipse_15" data-name="Ellipse 15" cx="109.78" cy="109.78" r="109.78" style="fill:#0544a8"/><g id="government-buildings"><g id="Group_251" data-name="Group 251"><g id="Group_250" data-name="Group 250"><path id="Path_200" data-name="Path 200" d="M138.19,137a2.26,2.26,0,0,0-2.26,2.26v5.33a2.26,2.26,0,0,0,4.53,0v-5.33a2.26,2.26,0,0,0-2.26-2.26Z" style="fill:#fff"/></g></g><g id="Group_253" data-name="Group 253"><g id="Group_252" data-name="Group 252"><path id="Path_201" data-name="Path 201" d="M146.86,137a2.26,2.26,0,0,0-2.26,2.26v5.33a2.26,2.26,0,0,0,4.53,0v-5.33a2.26,2.26,0,0,0-2.26-2.26Z" style="fill:#fff"/></g></g><g id="Group_255" data-name="Group 255"><g id="Group_254" data-name="Group 254"><path id="Path_202" data-name="Path 202" d="M138.19,151.89a2.26,2.26,0,0,0-2.26,2.26v5.33a2.26,2.26,0,0,0,4.53,0v-5.33a2.26,2.26,0,0,0-2.26-2.26Z" style="fill:#fff"/></g></g><g id="Group_257" data-name="Group 257"><g id="Group_256" data-name="Group 256"><path id="Path_203" data-name="Path 203" d="M146.86,151.89a2.26,2.26,0,0,0-2.26,2.26v5.33a2.26,2.26,0,0,0,4.53,0v-5.33a2.26,2.26,0,0,0-2.26-2.26Z" style="fill:#fff"/></g></g><g id="Group_259" data-name="Group 259"><g id="Group_258" data-name="Group 258"><path id="Path_204" data-name="Path 204" d="M71.63,137a2.26,2.26,0,0,0-2.26,2.26v5.33a2.26,2.26,0,0,0,4.53,0v-5.33A2.26,2.26,0,0,0,71.63,137Z" style="fill:#fff"/></g></g><g id="Group_261" data-name="Group 261"><g id="Group_260" data-name="Group 260"><path id="Path_205" data-name="Path 205" d="M80.31,137A2.26,2.26,0,0,0,78,139.24v5.33a2.26,2.26,0,1,0,4.53,0h0v-5.33A2.26,2.26,0,0,0,80.31,137Z" style="fill:#fff"/></g></g><g id="Group_263" data-name="Group 263"><g id="Group_262" data-name="Group 262"><path id="Path_206" data-name="Path 206" d="M71.63,151.89a2.26,2.26,0,0,0-2.26,2.26v5.33a2.26,2.26,0,0,0,4.53,0h0v-5.33A2.26,2.26,0,0,0,71.63,151.89Z" style="fill:#fff"/></g></g><g id="Group_265" data-name="Group 265"><g id="Group_264" data-name="Group 264"><path id="Path_207" data-name="Path 207" d="M80.31,151.89A2.26,2.26,0,0,0,78,154.16v5.33a2.26,2.26,0,1,0,4.53,0h0v-5.33A2.26,2.26,0,0,0,80.31,151.89Z" style="fill:#fff"/></g></g><g id="Group_267" data-name="Group 267"><g id="Group_266" data-name="Group 266"><path id="Path_208" data-name="Path 208" d="M103.92,137a2.26,2.26,0,0,0-2.26,2.26v5.33a2.26,2.26,0,1,0,4.53,0h0v-5.33A2.26,2.26,0,0,0,103.92,137Z" style="fill:#fff"/></g></g><g id="Group_269" data-name="Group 269"><g id="Group_268" data-name="Group 268"><path id="Path_209" data-name="Path 209" d="M112.59,137a2.26,2.26,0,0,0-2.26,2.26v5.33a2.26,2.26,0,0,0,4.53,0v-5.33a2.26,2.26,0,0,0-2.26-2.26Z" style="fill:#fff"/></g></g><g id="Group_271" data-name="Group 271"><g id="Group_270" data-name="Group 270"><path id="Path_210" data-name="Path 210" d="M168.69,173.88h-11V162.11a2.26,2.26,0,1,0-4.53,0h0v11.78H136.39a6.32,6.32,0,0,0-4.24-7.88l-.43-.11V130.58h21.44v21a2.26,2.26,0,0,0,4.53,0h0V122.43h.39a5.45,5.45,0,0,0,5.45-5.44s0,0,0,0c0-7,0-8.11,0-9.23a3.64,3.64,0,0,0-1.5-2.92L123.85,77.28a12.63,12.63,0,0,0-8.26-1.83V61.38h21A3.39,3.39,0,0,0,140,58V41.57a3.14,3.14,0,0,0-3.14-3.14H115.58v-.08a6.34,6.34,0,0,0-12.68,0v6.27a2.26,2.26,0,1,0,4.53,0V38.36a1.81,1.81,0,0,1,3.62,0v37.1h-3.62V55.19a2.26,2.26,0,1,0-4.53,0V75.46c-2.29.19-5.31-.69-8.56,1.67l-37.41,27A4.75,4.75,0,0,0,55,108c0,9.48-.13,9.51.23,10.62a5.51,5.51,0,0,0,5.61,3.83v51.46h-11a6.34,6.34,0,0,0,0,12.68H168.69a6.34,6.34,0,0,0,.24-12.68h-.24ZM135.46,43V56.85H115.59V43Zm-3.33,129.11a1.81,1.81,0,0,1-1.81,1.81h-10a1.81,1.81,0,0,1,0-3.62h10A1.81,1.81,0,0,1,132.13,172.07Zm-17.84,1.81h-3.62V156.12h8.28v9.77a6.36,6.36,0,0,0-4.77,7.62q0,.19.1.37Zm-16.42-8v-9.77h8.28v17.76h-3.6a6.36,6.36,0,0,0-4.31-7.9Zm-17.44,8H65.33v-43.3H85.11v35.31a6.34,6.34,0,0,0-4.79,7.57Q80.37,173.68,80.43,173.88Zm-15.1-47.83v-3.62H85.11v3.62Zm21.18,44.21H96.66a1.81,1.81,0,0,1-.19,3.61h-10a1.81,1.81,0,1,1,0-3.62h0Zm3.12-4.53v-43.3h3.71v43.3Zm8.23-14.14v-21h21.08v21Zm0-25.54v-3.62h21.08v3.62Zm25.62,39.68v-43.3h3.71v43.3h-3.71Zm29.69-39.68H131.72v-3.62h21.44ZM60.4,117.9a.91.91,0,0,1-.89-.65,21.11,21.11,0,0,1,0-3H82.08a2.26,2.26,0,1,0,0-4.53H59.5c0-1.65-.08-1.83.09-1.94C98.82,79.84,96.92,80,99.52,80h18.69c3,0,1.09,0,40.78,28.24,0,0,0,1.62,0,1.52H92.64a2.26,2.26,0,0,0,0,4.53H159a18.2,18.2,0,0,1,0,3,.91.91,0,0,1-.89.65ZM168.69,182H49.8A1.81,1.81,0,0,1,48,179.82a1.83,1.83,0,0,1,1.76-1.42H168.69a1.81,1.81,0,0,1,0,3.62h0Z" style="fill:#fff"/></g></g></g></svg>