<?xml version="1.0" encoding="utf-8"?>
<!-- Generator: Adobe Illustrator 21.0.0, SVG Export Plug-In . SVG Version: 6.00 Build 0)  -->
<svg version="1.1" id="Capa_1" xmlns="http://www.w3.org/2000/svg" xmlns:xlink="http://www.w3.org/1999/xlink" x="0px" y="0px"
	 viewBox="0 0 512 512" style="enable-background:new 0 0 512 512;" xml:space="preserve">
<style type="text/css">
	.st0{fill:#FFFFFF;}
</style>
<g>
	<g>
		<path class="st0" d="M512,240.7l-76.6-40.2l76.5-49.6L256,15.3L0.1,150.8l76.5,49.6L0,240.7l76.6,49.7L0,330.6l256,166.1
			l256-166.1l-76.6-40.2L512,240.7z M452.8,153.5L402,186.4l-44.4-27.5l47.5-30.7L452.8,153.5z M228.4,206.8L184.9,235l-49.6-32.2
			l44.8-27.3L228.4,206.8z M208.5,158.2l45.9-28l47.2,29.2L256,189L208.5,158.2z M256,224.7l43.6,28.2L256,281.1l-43.6-28.3
			L256,224.7z M283.6,206.8l46.2-29.9l44.5,27.5L327.1,235L283.6,206.8z M374.7,112.1l-45.3,29.3l-46.3-28.7l43.2-26.3L374.7,112.1z
			 M256,49.2l39.5,20.9l-41,24.9l-39.3-24.3L256,49.2z M184.6,87l41.2,25.5l-45.3,27.6l-43.3-28L184.6,87z M59.2,153.5l47.7-25.3
			l45.2,29.3l-44.8,27.3L59.2,153.5z M59.3,243.4l46.2-24.2L256,316.9l150.6-97.7l46.2,24.2L256,371L59.3,243.4z M452.7,333.3
			L256,461L59.3,333.3l46.2-24.2L256,406.8l150.6-97.7L452.7,333.3z"/>
	</g>
</g>
</svg>
