<?xml version="1.0" encoding="utf-8"?>
<!-- Generator: Adobe Illustrator 21.0.0, SVG Export Plug-In . SVG Version: 6.00 Build 0)  -->
<svg version="1.1" id="Layer_1" xmlns="http://www.w3.org/2000/svg" xmlns:xlink="http://www.w3.org/1999/xlink" x="0px" y="0px"
	 viewBox="0 0 300 300" style="enable-background:new 0 0 300 300;" xml:space="preserve">
<style type="text/css">
	.st0{fill:#FFFFFF;}
</style>
<g>
	<g>
		<path class="st0" d="M150,0C67.2,0,0,67.2,0,150s67.2,150,150,150s150-67.2,150-150C300,67.2,232.8,0,150,0z M70.8,226.8
			c-4,0-7.2-3.2-7.2-7.2V80.4c0-4,3.2-7.2,7.2-7.2h158.5c4,0,7.2,3.2,7.2,7.2v77.1h-10.8h-6.1V89.8H80.3v93h7.9l32.1-50.1l21.5,33.5
			l10.7,16.6h9.2L146.5,159l10-15.5l25.2,39.4h10.2v8.4v16.4V218h10.4h13.1v8.8L70.8,226.8L70.8,226.8z M207.3,121
			c0,8.2-6.7,14.9-14.9,14.9s-14.9-6.7-14.9-14.9s6.7-14.9,14.9-14.9S207.3,112.8,207.3,121z M242.1,207.6v23.4h-16.4v-4.2v-19.2
			h-23.4v-16.4h23.4v-23.4h10.8h5.6v23.4h23.4v16.4H242.1z"/>
	</g>
</g>
</svg>
