<svg id="Layer_1" data-name="Layer 1" xmlns="http://www.w3.org/2000/svg" viewBox="0 0 220.98 225.65"><title>RVSG Prj IconArtboard 2</title><circle id="Ellipse_13" data-name="Ellipse 13" cx="109.77" cy="115.87" r="109.78" style="fill:#0544a8"/><path id="portfolio" d="M157,83.85H130.69v-2.9A8.72,8.72,0,0,0,122,72.24H98.76A8.72,8.72,0,0,0,90,80.95v2.9H63.73a2.91,2.91,0,0,0-2.9,2.9v63.86a8.72,8.72,0,0,0,8.71,8.71H151.2a8.72,8.72,0,0,0,8.71-8.71V86.8a2.82,2.82,0,0,0-2.68-3Zm-61.17-2.9a2.91,2.91,0,0,1,2.9-2.9H122a2.91,2.91,0,0,1,2.9,2.9v2.9h-29ZM153,89.65l-9,27a2.9,2.9,0,0,1-2.74,2H124.89v-2.9a2.9,2.9,0,0,0-2.9-2.9H98.76a2.9,2.9,0,0,0-2.9,2.9h0v2.9H79.52a2.9,2.9,0,0,1-2.74-2l-9-27Zm-33.9,29v5.8H101.66v-5.8Zm35,31.93a2.91,2.91,0,0,1-2.9,2.9H69.54a2.91,2.91,0,0,1-2.9-2.9v-46l4.63,13.89a8.69,8.69,0,0,0,8.26,5.95H95.86v2.9a2.9,2.9,0,0,0,2.9,2.9H122a2.9,2.9,0,0,0,2.9-2.9h0v-2.9h16.33a8.69,8.69,0,0,0,8.26-5.95l4.63-13.89Z" style="fill:#fff"/></svg>