<svg id="Layer_1" data-name="Layer 1" xmlns="http://www.w3.org/2000/svg" viewBox="0 0 219.57 219.57"><title>RVSG Prj IconArtboard 5</title><circle id="Ellipse_19" data-name="Ellipse 19" cx="109.78" cy="109.78" r="109.78" style="fill:#0544a8"/><g id="school"><path id="Path_181" data-name="Path 181" d="M172.17,148.87H167.8V93.55h4.37a2,2,0,0,0,1.67-3.05L159,67.2a2,2,0,0,0-1.67-.91H117.93l-9.43-9.43V49.08h19.19A2,2,0,0,0,129.35,46l-3.5-5.26,3.5-5.26a2,2,0,0,0-1.65-3.09H108.5V30.13a2,2,0,1,0-4,0V56.85l-9.43,9.43H55.69a2,2,0,0,0-1.67.91L39.19,90.49a2,2,0,0,0,1.67,3.05h4.37v55.33H40.87a2,2,0,1,0,0,4h131.3a2,2,0,1,0,0-4ZM156.25,70.24l12.3,19.32H141.22L121.91,70.24ZM124,36.37l-2.18,3.27a2,2,0,0,0,0,2.2L124,45.1H108.5V36.37ZM56.78,70.24H91.14L71.82,89.57H44.48Zm-7.58,23.3H72.91l.11,0,.1,0,.09,0,.09,0,.09,0,.08,0,.09,0,.08,0,.09-.05.09-.06.07-.05L74,93,106.52,60.5,139,93l.15.13.07.05.09.06.09.05.08,0,.09,0,.08,0,.09,0,.09,0,.09,0,.1,0,.11,0h23.71v55.33H121.22V121.2A6.23,6.23,0,0,0,115,115H98a6.23,6.23,0,0,0-6.22,6.22v27.67H49.21Zm68,29.91H95.8v-2.25A2.25,2.25,0,0,1,98,119H115a2.25,2.25,0,0,1,2.25,2.25Zm-21.44,4h8.73v21.44H95.8Zm12.71,0h8.74v21.44H108.5Z" style="fill:#fff"/><path id="Path_182" data-name="Path 182" d="M106.52,108.37A14.69,14.69,0,1,0,91.83,93.68h0A14.71,14.71,0,0,0,106.52,108.37Zm0-25.41A10.72,10.72,0,1,1,95.8,93.68,10.72,10.72,0,0,1,106.52,83Z" style="fill:#fff"/><path id="Path_183" data-name="Path 183" d="M106.52,95.66a2,2,0,0,0,2-2V87.32a2,2,0,0,0-4,0v4.37h-4.37a2,2,0,1,0,0,4h6.37Z" style="fill:#fff"/><path id="Path_184" data-name="Path 184" d="M85.35,125.58H74.76a2,2,0,0,0-2,2h0v12.71a2,2,0,0,0,2,2H85.35a2,2,0,0,0,2-2h0V127.56a2,2,0,0,0-2-2Zm-2,4v2.38H76.74v-2.38Zm-6.62,8.74V135.9h6.62v2.38Z" style="fill:#fff"/><path id="Path_185" data-name="Path 185" d="M66.28,125.58H55.69a2,2,0,0,0-2,2h0v12.71a2,2,0,0,0,2,2H66.28a2,2,0,0,0,2-2h0V127.56a2,2,0,0,0-2-2Zm-2,4v2.38H57.68v-2.38Zm-6.62,8.74V135.9h6.61v2.38Z" style="fill:#fff"/><path id="Path_186" data-name="Path 186" d="M84.68,100.16H75.41a2.65,2.65,0,0,0-2.65,2.65V117a2,2,0,0,0,2,2H85.34a2,2,0,0,0,2-2h0V102.81A2.65,2.65,0,0,0,84.68,100.16Zm-1.32,4v4.49H76.73v-4.5ZM76.73,115v-2.38h6.62V115Z" style="fill:#fff"/><path id="Path_187" data-name="Path 187" d="M65.62,100.16H56.35a2.65,2.65,0,0,0-2.65,2.65V117a2,2,0,0,0,2,2H66.28a2,2,0,0,0,2-2h0V102.81A2.65,2.65,0,0,0,65.62,100.16Zm-1.32,4v4.49H57.68v-4.5ZM57.67,115v-2.38h6.62V115Z" style="fill:#fff"/><path id="Path_188" data-name="Path 188" d="M146.76,142.25h10.59a2,2,0,0,0,2-2h0V127.56a2,2,0,0,0-2-2H146.76a2,2,0,0,0-2,2h0v12.71A2,2,0,0,0,146.76,142.25Zm2-4V135.9h6.62v2.38Zm6.62-8.74v2.38h-6.62v-2.38Z" style="fill:#fff"/><path id="Path_189" data-name="Path 189" d="M127.69,142.25h10.59a2,2,0,0,0,2-2h0V127.56a2,2,0,0,0-2-2H127.7a2,2,0,0,0-2,2h0v12.71A2,2,0,0,0,127.69,142.25Zm2-4V135.9h6.62v2.38Zm6.62-8.74v2.38h-6.62v-2.38Z" style="fill:#fff"/><path id="Path_190" data-name="Path 190" d="M146.76,119h10.59a2,2,0,0,0,2-2h0V102.81a2.65,2.65,0,0,0-2.65-2.65h-9.27a2.65,2.65,0,0,0-2.65,2.65V117a2,2,0,0,0,2,2Zm2-4v-2.38h6.62V115Zm6.62-10.85v4.49h-6.62v-4.5Z" style="fill:#fff"/><path id="Path_191" data-name="Path 191" d="M127.69,119h10.59a2,2,0,0,0,2-2h0V102.81a2.65,2.65,0,0,0-2.65-2.65h-9.27a2.65,2.65,0,0,0-2.65,2.65V117a2,2,0,0,0,2,2Zm2-4v-2.38h6.62V115Zm6.62-10.85v4.49h-6.62v-4.5Z" style="fill:#fff"/></g></svg>