<svg id="Layer_1" data-name="Layer 1" xmlns="http://www.w3.org/2000/svg" viewBox="0 0 219.57 219.57"><title>RVSG Prj IconArtboard 6</title><circle id="Ellipse_20" data-name="Ellipse 20" cx="109.78" cy="109.78" r="109.78" style="fill:#0544a8"/><g id="theater-masks"><g id="Group_235" data-name="Group 235"><g id="Group_234" data-name="Group 234"><path id="Path_192" data-name="Path 192" d="M141.31,98.76a2.41,2.41,0,1,0,1.44,3.09,2.41,2.41,0,0,0-1.44-3.09Z" style="fill:#fff"/></g></g><g id="Group_237" data-name="Group 237"><g id="Group_236" data-name="Group 236"><path id="Path_193" data-name="Path 193" d="M84.31,57.91a2.41,2.41,0,1,0,2.41,2.41h0A2.41,2.41,0,0,0,84.31,57.91Z" style="fill:#fff"/></g></g><g id="Group_239" data-name="Group 239"><g id="Group_238" data-name="Group 238"><path id="Path_194" data-name="Path 194" d="M173.06,105.29a108.84,108.84,0,0,0-55-21.54V55.39a2.41,2.41,0,0,0-1.7-2.31,109,109,0,0,0-64.13,0,2.41,2.41,0,0,0-1.7,2.31V96.17a38.79,38.79,0,0,0,27.38,37.08,21.62,21.62,0,0,0,12.77,0,39.11,39.11,0,0,0,3.72-1.37,38.71,38.71,0,0,0,15.13,35.48,22,22,0,0,0,14,4.42A38.76,38.76,0,0,0,160,146.25l10.42-28.61v0l3.49-9.58A2.41,2.41,0,0,0,173.06,105.29ZM96.44,125.49a34,34,0,0,1-7.17,3.15,16.81,16.81,0,0,1-9.93,0,34,34,0,0,1-24-32.47V67.38a95,95,0,0,1,21.07-4.21,2.41,2.41,0,0,0-.16-4.82l-.24,0a99.79,99.79,0,0,0-20.66,4V57.18a104.2,104.2,0,0,1,57.89,0v5.15a99.62,99.62,0,0,0-20.53-4,2.41,2.41,0,0,0-.41,4.8,94.84,94.84,0,0,1,20.93,4.2V96.17a34.08,34.08,0,0,1-16.81,29.32ZM167,112.81a99.78,99.78,0,0,0-17.94-10.74,2.41,2.41,0,0,0-2,4.38,95,95,0,0,1,18.24,11.11l-9.83,27a33.79,33.79,0,0,1-33.65,22.3,16.81,16.81,0,0,1-9.33-3.4A33.89,33.89,0,0,1,99.78,129.1,38.83,38.83,0,0,0,114.19,113a2.41,2.41,0,0,0,2.3-.36,4.83,4.83,0,0,1,7.75,3.14,2.41,2.41,0,0,0,4.78-.67,9.65,9.65,0,0,0-12.58-7.82,38.64,38.64,0,0,0,1.59-9,95,95,0,0,1,14.1,2.7,2.41,2.41,0,0,0,1.27-4.65,99.85,99.85,0,0,0-15.3-2.9V88.61a104,104,0,0,1,50.64,19.47Z" style="fill:#fff"/></g></g><g id="Group_241" data-name="Group 241"><g id="Group_240" data-name="Group 240"><path id="Path_195" data-name="Path 195" d="M102.41,94.42a2.41,2.41,0,0,0-2.41,0,31.62,31.62,0,0,1-31.38,0A2.41,2.41,0,0,0,65,96.51a19.3,19.3,0,0,0,38.59,0A2.41,2.41,0,0,0,102.41,94.42ZM84.31,111a14.5,14.5,0,0,1-13.86-10.32,36.43,36.43,0,0,0,27.73,0A14.48,14.48,0,0,1,84.31,111Z" style="fill:#fff"/></g></g><g id="Group_243" data-name="Group 243"><g id="Group_242" data-name="Group 242"><path id="Path_196" data-name="Path 196" d="M107.31,77.51a9.65,9.65,0,0,0-16.87-.32,2.41,2.41,0,0,0,4.17,2.43,4.83,4.83,0,0,1,8.44.16,2.41,2.41,0,0,0,4.26-2.26Z" style="fill:#fff"/></g></g><g id="Group_245" data-name="Group 245"><g id="Group_244" data-name="Group 244"><path id="Path_197" data-name="Path 197" d="M78.36,77.51a9.65,9.65,0,0,0-16.87-.32,2.41,2.41,0,0,0,4.11,2.54l.06-.11a4.83,4.83,0,0,1,8.44.16,2.41,2.41,0,0,0,4.26-2.26Z" style="fill:#fff"/></g></g><g id="Group_247" data-name="Group 247"><g id="Group_246" data-name="Group 246"><path id="Path_198" data-name="Path 198" d="M129.76,130.49A19.32,19.32,0,0,0,105,142a2.41,2.41,0,0,0,2.68,3.2A31.58,31.58,0,0,1,137.19,156a2.41,2.41,0,0,0,4.12-.73,19.28,19.28,0,0,0-11.5-24.72h0Zm7.85,19A36.37,36.37,0,0,0,111.56,140a14.48,14.48,0,0,1,26.07,8.65q0,.42,0,.83Z" style="fill:#fff"/></g></g><g id="Group_249" data-name="Group 249"><g id="Group_248" data-name="Group 248"><path id="Path_199" data-name="Path 199" d="M156.22,125A9.65,9.65,0,0,0,140.48,119a2.41,2.41,0,0,0,3.09,3.71,4.82,4.82,0,0,1,7.87,3,2.41,2.41,0,0,0,4.78-.66Z" style="fill:#fff"/></g></g></g></svg>