<svg id="Layer_1" data-name="Layer 1" xmlns="http://www.w3.org/2000/svg" viewBox="0 0 219.57 219.57"><title>RVSG Prj IconArtboard 3</title><circle id="Ellipse_14" data-name="Ellipse 14" cx="109.78" cy="109.78" r="109.78" style="fill:#0544a8"/><g id="tv"><path id="Path_168" data-name="Path 168" d="M168.15,64H52.3A4.27,4.27,0,0,0,48,68.31v76.3a4.27,4.27,0,0,0,4.27,4.27H71v4.6a4.27,4.27,0,0,0,4.27,4.27h5.92a4.29,4.29,0,0,0,4-2.77l2.29-6.09h5.93a1.83,1.83,0,1,0,0-3.64H52.3a.62.62,0,0,1-.62-.62V68.31a.62.62,0,0,1,.62-.62H168.15a.62.62,0,0,1,.62.62v76.3a.62.62,0,0,1-.62.62H100.79a1.83,1.83,0,0,0,0,3.64H133l2.29,6.07a4.29,4.29,0,0,0,4,2.77h5.92a4.27,4.27,0,0,0,4.26-4.26v-4.6h18.73a4.27,4.27,0,0,0,4.27-4.27V68.31A4.27,4.27,0,0,0,168.15,64ZM81.8,153.68a.62.62,0,0,1-.58.4H75.29a.62.62,0,0,1-.62-.62v-4.59H83.6Zm64-.23a.62.62,0,0,1-.62.62h-5.92a.62.62,0,0,1-.58-.4l-1.8-4.8h8.93Z" style="fill:#fff"/><path id="Path_169" data-name="Path 169" d="M137.15,71.73a1.83,1.83,0,0,0-1.83-1.83H58.16a4.27,4.27,0,0,0-4.27,4.27v46.27a1.83,1.83,0,0,0,3.64,0V74.18a.62.62,0,0,1,.62-.62h77.17A1.83,1.83,0,0,0,137.15,71.73Z" style="fill:#fff"/><path id="Path_170" data-name="Path 170" d="M53.9,133.36a4.27,4.27,0,0,0,4.27,4.27H162.29a4.27,4.27,0,0,0,4.26-4.27V74.18a4.27,4.27,0,0,0-4.27-4.27H142.7a1.83,1.83,0,0,0,0,3.64h19.59a.62.62,0,0,1,.62.62h0v59.19a.62.62,0,0,1-.62.62H58.16a.62.62,0,0,1-.62-.62v-5.55a1.83,1.83,0,1,0-3.64,0Z" style="fill:#fff"/><path id="Path_171" data-name="Path 171" d="M67.46,89.72a1.83,1.83,0,0,0,1.83-1.83v-6H70.6a1.83,1.83,0,1,0,0-3.64H64.33a1.83,1.83,0,1,0,0,3.64h1.31v6A1.83,1.83,0,0,0,67.46,89.72Z" style="fill:#fff"/><path id="Path_172" data-name="Path 172" d="M79.69,79.33,78,83.26l-1.69-3.93A1.83,1.83,0,1,0,73,80.76l3.36,7.84a1.83,1.83,0,0,0,3.35,0L83,80.76a1.83,1.83,0,0,0-3.35-1.44Z" style="fill:#fff"/></g></svg>