<svg id="Group_42" data-name="Group 42" xmlns="http://www.w3.org/2000/svg" viewBox="0 0 90.949 90.939">
  <defs>
    <style>
      .cls-1 {
        fill: #fff;
      }
    </style>
  </defs>
  <path id="Path_80" data-name="Path 80" class="cls-1" d="M88.284,37.5H74.262L83.2,32.335a2.665,2.665,0,0,0,.968-3.653L68.185,1.347a2.665,2.665,0,0,0-3.619-.97L18.416,26.667a2.665,2.665,0,0,0-.989,3.648L21.575,37.5H2.665A2.665,2.665,0,0,0,0,40.163V88.3a2.665,2.665,0,0,0,2.665,2.665h85.62A2.665,2.665,0,0,0,90.949,88.3V40.163A2.665,2.665,0,0,0,88.284,37.5ZM64.915,6.312,78.22,29.06l-33.077,19.1H33.881l-10.5-18.186Zm20.7,79.326H5.329V64.144H85.62Zm0-26.823H5.329V42.828H24.651l3.077,5.329h-8.9a2.665,2.665,0,1,0,0,5.329H72.12a2.665,2.665,0,1,0,0-5.329H55.8l9.23-5.329H85.62Z" transform="translate(0 -0.028)"/>
  <path id="Path_81" data-name="Path 81" class="cls-1" d="M255.166,91.105a2.664,2.664,0,0,0-3.37,1.685l-3.966,11.9-2.28-2.28a2.664,2.664,0,1,0-3.768,3.768l5.329,5.329a2.666,2.666,0,0,0,4.412-1.041l5.329-15.987A2.665,2.665,0,0,0,255.166,91.105Z" transform="translate(-198.19 -74.814)"/>
</svg>
