<svg id="Layer_1" data-name="Layer 1" xmlns="http://www.w3.org/2000/svg" viewBox="0 0 219.14 219.57"><title>RVSG Prj IconArtboard 4</title><circle id="Ellipse_18" data-name="Ellipse 18" cx="109.36" cy="109.78" r="109.78" style="fill:#0544a8"/><g id="web"><g id="Group_273" data-name="Group 273"><g id="Group_272" data-name="Group 272"><path id="Path_211" data-name="Path 211" d="M149.24,38.88H73.57a10,10,0,0,0-10,10V102.6a10,10,0,0,0,10,10H100.8l-2.84,10H91.49v4h39.82v-4h-6.46l-2.84-10h27.23a10,10,0,0,0,10-10V48.84A10,10,0,0,0,149.24,38.88ZM102.1,122.52l2.84-10h12.93l2.84,10Zm53.12-19.91a6,6,0,0,1-6,6H73.57a6,6,0,0,1-6-6v-4h87.62Zm0-8H67.6V48.84a6,6,0,0,1,6-6h75.67a6,6,0,0,1,6,6Z" style="fill:#fff"/></g></g><g id="Group_275" data-name="Group 275"><g id="Group_274" data-name="Group 274"><path id="Path_212" data-name="Path 212" d="M127.34,130.48H71.58a2,2,0,0,0-2,2h0v23.9a2,2,0,0,0,2,2h55.76a2,2,0,0,0,2-2h0v-23.9a2,2,0,0,0-2-2Zm-2,23.9H73.57V134.47h51.77Z" style="fill:#fff"/></g></g><g id="Group_277" data-name="Group 277"><g id="Group_276" data-name="Group 276"><rect id="Rectangle_160" data-name="Rectangle 160" x="77.56" y="146.41" width="3.98" height="3.98" style="fill:#fff"/></g></g><g id="Group_279" data-name="Group 279"><g id="Group_278" data-name="Group 278"><rect id="Rectangle_161" data-name="Rectangle 161" x="77.56" y="138.45" width="3.98" height="3.98" style="fill:#fff"/></g></g><g id="Group_281" data-name="Group 281"><g id="Group_280" data-name="Group 280"><rect id="Rectangle_162" data-name="Rectangle 162" x="85.52" y="138.45" width="3.98" height="3.98" style="fill:#fff"/></g></g><g id="Group_283" data-name="Group 283"><g id="Group_282" data-name="Group 282"><rect id="Rectangle_163" data-name="Rectangle 163" x="93.49" y="138.45" width="3.98" height="3.98" style="fill:#fff"/></g></g><g id="Group_285" data-name="Group 285"><g id="Group_284" data-name="Group 284"><rect id="Rectangle_164" data-name="Rectangle 164" x="109.42" y="138.45" width="3.98" height="3.98" style="fill:#fff"/></g></g><g id="Group_287" data-name="Group 287"><g id="Group_286" data-name="Group 286"><rect id="Rectangle_165" data-name="Rectangle 165" x="101.45" y="138.45" width="3.98" height="3.98" style="fill:#fff"/></g></g><g id="Group_289" data-name="Group 289"><g id="Group_288" data-name="Group 288"><rect id="Rectangle_166" data-name="Rectangle 166" x="117.38" y="146.41" width="3.98" height="3.98" style="fill:#fff"/></g></g><g id="Group_291" data-name="Group 291"><g id="Group_290" data-name="Group 290"><rect id="Rectangle_167" data-name="Rectangle 167" x="117.38" y="138.45" width="3.98" height="3.98" style="fill:#fff"/></g></g><g id="Group_293" data-name="Group 293"><g id="Group_292" data-name="Group 292"><rect id="Rectangle_168" data-name="Rectangle 168" x="85.52" y="146.41" width="27.88" height="3.98" style="fill:#fff"/></g></g><g id="Group_295" data-name="Group 295"><g id="Group_294" data-name="Group 294"><path id="Path_213" data-name="Path 213" d="M143.27,130.48a10,10,0,0,0-10,10v8a10,10,0,0,0,19.91,0v-8A10,10,0,0,0,143.27,130.48Zm6,17.92a6,6,0,0,1-11.95,0v-8a6,6,0,0,1,11.95,0Z" style="fill:#fff"/></g></g><g id="Group_297" data-name="Group 297"><g id="Group_296" data-name="Group 296"><rect id="Rectangle_169" data-name="Rectangle 169" x="141.28" y="138.45" width="3.98" height="3.98" style="fill:#fff"/></g></g><g id="Group_299" data-name="Group 299"><g id="Group_298" data-name="Group 298"><rect id="Rectangle_170" data-name="Rectangle 170" x="96.9" y="68.79" width="28.98" height="3.98" transform="matrix(0.28, -0.96, 0.96, 0.28, 12.7, 158.4)" style="fill:#fff"/></g></g><g id="Group_301" data-name="Group 301"><g id="Group_300" data-name="Group 300"><path id="Path_214" data-name="Path 214" d="M100.73,62.31l-2.55-3.06-11.95,10a2,2,0,0,0,0,3.06l11.95,10,2.55-3.06L90.62,70.74Z" style="fill:#fff"/></g></g><g id="Group_303" data-name="Group 303"><g id="Group_302" data-name="Group 302"><path id="Path_215" data-name="Path 215" d="M136.83,69.47a2,2,0,0,0-.25-.25l-11.95-10-2.55,3.06,10.11,8.43-10.11,8.43,2.55,3.06,11.95-10a2,2,0,0,0,.25-2.81Z" style="fill:#fff"/></g></g></g></svg>