<svg id="Capa_1" data-name="Capa 1" xmlns="http://www.w3.org/2000/svg" viewBox="0 0 480 480"><defs><style>.cls-1{fill:#fff;}</style></defs><title>RVSG IconArtboard 1</title><path class="cls-1" d="M416.28,400c-21.6,0-24-9.6-24-14.4,30.4-12.8,48.8-43.2,48-76V304a71.7,71.7,0,0,0-72-72h-96a7.56,7.56,0,0,0-8,8,71.83,71.83,0,0,0,19.2,48.8c-1.6,8-3.2,15.2-3.2,23.2a80.85,80.85,0,0,0,48,73.6c0,4.8-2.4,14.4-24,14.4a39.61,39.61,0,0,0-40,40v40h16V440a23.57,23.57,0,0,1,24-24c24.8,0,40-12,40-32v-4a7.68,7.68,0,0,0-5.6-7.2,64.78,64.78,0,0,1-42.4-60.8c0-4,0-8,.8-11.2a72.45,72.45,0,0,0,39.2,11.2h88a63,63,0,0,1-42.4,60,7.68,7.68,0,0,0-5.6,7.2V384c0,20,15.2,32,40,32a23.57,23.57,0,0,1,24,24v40h16V440A39.61,39.61,0,0,0,416.28,400Zm-80-104a56,56,0,0,1-55.2-48h87.2a56,56,0,0,1,55.2,48Z"/><path class="cls-1" d="M479.48,216V80c.8-17.6-13.6-32-31.2-32h-160V32a32.09,32.09,0,0,0-32-32h-224a32.09,32.09,0,0,0-32,32V208q0,50.4,36,72l8-13.6c-18.4-12-28-30.4-28-58.4V32a16,16,0,0,1,16-16h224a16,16,0,0,1,16,16V184a16,16,0,0,1-16,16H113.88c-24.8,0-46.4,18.4-49.6,43.2V248h16v-3.2a33.65,33.65,0,0,1,33.6-28.8h142.4a32.09,32.09,0,0,0,32-32h96a39.61,39.61,0,0,1,40,40h16a55.66,55.66,0,0,0-56-56h-96V64h160a16,16,0,0,1,16,16V216a69.74,69.74,0,0,1-14.4,46.4l12,10.4A80.51,80.51,0,0,0,479.48,216Z"/><path class="cls-1" d="M200.28,408a23.77,23.77,0,0,1-24-22.4c40.8-17.6,59.2-64.8,41.6-105.6s-64.8-59.2-105.6-41.6S53.08,303.2,70.68,344a81.2,81.2,0,0,0,41.6,41.6,23.77,23.77,0,0,1-24,22.4,39.61,39.61,0,0,0-40,40v32h16V448a23.57,23.57,0,0,1,24-24,39.61,39.61,0,0,0,40-40v-4a7.68,7.68,0,0,0-5.6-7.2,64.73,64.73,0,0,1-42.4-52h24a11.37,11.37,0,0,0,4.8-1.6l19.2-12.8,19.2,12.8a11.37,11.37,0,0,0,4.8,1.6h55.2a63.39,63.39,0,0,1-42.4,52,7.68,7.68,0,0,0-5.6,7.2v4a39.61,39.61,0,0,0,40,40,23.57,23.57,0,0,1,24,24v32h16V448C240.28,425.6,222.68,408,200.28,408Zm-45.6-104-21.6-14.4a8.67,8.67,0,0,0-8.8,0L101.88,304H81.08a62.84,62.84,0,0,1,71.2-55.2c28.8,4,52,26.4,55.2,55.2Z"/><rect class="cls-1" x="40.28" y="40" width="168" height="16"/><rect class="cls-1" x="40.28" y="72" width="48" height="16"/><rect class="cls-1" x="104.28" y="72" width="120" height="16"/><rect class="cls-1" x="40.28" y="104" width="16" height="16"/><rect class="cls-1" x="72.28" y="104" width="64" height="16"/><rect class="cls-1" x="152.28" y="104" width="72" height="16"/><rect class="cls-1" x="336.28" y="96" width="112" height="16"/><rect class="cls-1" x="304.28" y="128" width="56" height="16"/><rect class="cls-1" x="376.28" y="128" width="72" height="16"/><rect class="cls-1" x="304.28" y="96" width="16" height="16"/></svg>