<svg id="Capa_1" data-name="Capa 1" xmlns="http://www.w3.org/2000/svg" viewBox="0 0 480 480"><defs><style>.cls-1{fill:#fff;}</style></defs><title>RVSG IconArtboard 1 copy</title><path class="cls-1" d="M281.65,80.69a142.1,142.1,0,1,0-201,201,142.1,142.1,0,1,0,201-201ZM268.28,268.28a123.19,123.19,0,1,1,0-174.22A122.37,122.37,0,0,1,268.28,268.28Z"/><path class="cls-1" d="M238.69,86.43a9.46,9.46,0,0,0-9.83,16.16,91.94,91.94,0,0,1,17.29,13.6,9.46,9.46,0,0,0,13.38-13.38A111,111,0,0,0,238.69,86.43Z"/><path class="cls-1" d="M109.5,119a9.43,9.43,0,0,0,6.69-2.77,92.29,92.29,0,0,1,79.2-25.82,9.46,9.46,0,1,0,2.91-18.69,111.28,111.28,0,0,0-95.49,31.13A9.46,9.46,0,0,0,109.5,119Z"/><path class="cls-1" d="M132.61,259.22a92.27,92.27,0,0,1-16.42-13.07,9.46,9.46,0,1,0-13.38,13.38,111.33,111.33,0,0,0,19.8,15.75,9.46,9.46,0,1,0,10-16.06Z"/><path class="cls-1" d="M246.15,246.15a91.45,91.45,0,0,1-75.87,26.28,9.46,9.46,0,1,0-2.23,18.78,112.44,112.44,0,0,0,13.3.79,110.12,110.12,0,0,0,78.18-32.47,9.46,9.46,0,0,0-13.38-13.38Z"/><path class="cls-1" d="M468.24,412.71,353.76,298.24a9.44,9.44,0,0,0-13.37,0l-4.58,4.58-11.23-11.24c54.68-70.91,49.53-173.4-15.44-238.38-70.56-70.56-185.38-70.56-255.94,0s-70.56,185.38,0,255.94a181.27,181.27,0,0,0,238.38,15.44l11.24,11.23-4.58,4.58a9.46,9.46,0,0,0,0,13.38L412.71,468.24a39.27,39.27,0,1,0,55.53-55.53ZM66.58,295.76A162.05,162.05,0,1,1,295.76,66.58,162.05,162.05,0,1,1,66.58,295.76ZM306,312.22c1.06-1,2.12-2,3.16-3.08s2.07-2.1,3.08-3.16l10.21,10.21-6.24,6.24ZM454.86,454.86a20.36,20.36,0,0,1-28.78,0L318.3,347.08l28.78-28.78L454.86,426.09A20.35,20.35,0,0,1,454.86,454.86Z"/></svg>