<svg id="Capa_1" data-name="Capa 1" xmlns="http://www.w3.org/2000/svg" viewBox="0 0 480 480"><defs><style>.cls-1{fill:#fff;}</style></defs><title>RVSG IconArtboard 1 copy 2</title><path class="cls-1" d="M249.83,399c-66.75,27-139.46,24.07-204.17-7.28,66.51-4.9,106.65-39,108.6-40.66a9.36,9.36,0,0,0-5.81-16.43c-26.38-.9-47.66-10.83-63.23-29.51A90.09,90.09,0,0,1,74.46,288.9a147.71,147.71,0,0,0,30.12-3.2,9.36,9.36,0,0,0,.07-18.21c-51.27-12.56-63.94-48.3-66.93-68.6A94.41,94.41,0,0,0,69,204.64a9.36,9.36,0,0,0,5.55-16.75C27.22,151,35.39,107.68,43.15,87.14c6.46,6.83,13.6,13.62,21.32,20.3A9.37,9.37,0,1,0,76.72,93.27,257.31,257.31,0,0,1,47.9,64.35a9.38,9.38,0,0,0-15.16,1.11A111.4,111.4,0,0,0,18.82,111.4c-1.4,18.54,1.79,43.51,20.73,68a61.86,61.86,0,0,1-7-3.73,9.37,9.37,0,0,0-14.27,7.21A102.48,102.48,0,0,0,26.1,226.3a94.64,94.64,0,0,0,36.06,43.34l-1-.1a9.36,9.36,0,0,0-10,11.74c.19.72,4.91,17.83,19.13,35.18a98.79,98.79,0,0,0,52.25,33.35c-21.78,12.1-60.84,27.69-112,22.9a9.36,9.36,0,0,0-6,17.14c46.74,30.72,99,46.35,151.5,46.35a268.41,268.41,0,0,0,100.84-19.81,9.36,9.36,0,1,0-7-17.36Z"/><path class="cls-1" d="M477.25,91.18A9.36,9.36,0,0,0,466.58,89c-5.44,2.39-10.73,4.36-15.71,6,15.4-18.56,16.67-33,16.77-35.14a9.36,9.36,0,0,0-14.73-8.11c-18.54,13-42.14,19.24-52.37,21A102.47,102.47,0,0,0,328.85,43.8,103.5,103.5,0,0,0,226,159.15c-32.89.64-66.17-12.82-89.2-24.88a9.37,9.37,0,1,0-8.68,16.6c27.65,14.47,69.16,30.78,109.85,26.26a9.36,9.36,0,0,0,8.11-11.34A84.81,84.81,0,0,1,328.85,62.53,84,84,0,0,1,390.33,89a9.39,9.39,0,0,0,7.55,2.88c6.2-.39,22.54-3.59,40.12-10.92-5.3,6.85-13.16,14.78-24.79,23a9.36,9.36,0,0,0,6.11,17,159.15,159.15,0,0,0,25.75-4.72,147.85,147.85,0,0,1-27.18,23.29,9.37,9.37,0,0,0-4.27,7.85c0,86.37-36.91,164.9-101.27,215.46a9.37,9.37,0,0,0,11.57,14.73,281.63,281.63,0,0,0,78.49-97.21c19.17-39.19,29.23-82.22,29.91-128C451,139.1,468.87,119.8,478.58,102A9.37,9.37,0,0,0,477.25,91.18Z"/><path class="cls-1" d="M282.63,383h0a9.36,9.36,0,1,0,12.68,3.81A9.36,9.36,0,0,0,282.63,383Z"/><path class="cls-1" d="M95,130.91a9.36,9.36,0,0,0,10.65-15.4h0A9.36,9.36,0,1,0,95,130.91Z"/></svg>