<svg xmlns="http://www.w3.org/2000/svg" viewBox="4846 3571 100 100">
  <defs>
    <style>
      .cls-1 {
        fill: #0544a8;
      }
    </style>
  </defs>
  <g id="Group_157" data-name="Group 157" transform="translate(4224 43)">
    <path id="Path_91" data-name="Path 91" class="cls-1" d="M43.293,159.333a24.748,24.748,0,0,0-12.23-20.1L19.55,126.44a6.225,6.225,0,0,0-6.217-1.91V102.667a6.667,6.667,0,1,0-13.333,0v31.545A15.048,15.048,0,0,0,1.888,141.5l14.778,26.6v6.235A1.667,1.667,0,0,0,18.333,176H41.667a1.667,1.667,0,0,0,1.667-1.667v-15ZM40,172.667H20v-5a1.667,1.667,0,0,0-.21-.81L4.8,139.878a11.711,11.711,0,0,1-1.468-5.667V102.667a3.333,3.333,0,1,1,6.667,0v23.922a6.333,6.333,0,0,0,.112,8.388L23.767,150l2.467-2.243L12.578,132.735a3.03,3.03,0,0,1,4.383-4.183c.039.039.076.078.112.118l11.688,12.987a2.353,2.353,0,0,0,.5.383A21.355,21.355,0,0,1,40,160.542Z" transform="translate(622 3452)"/>
    <path id="Path_92" data-name="Path 92" class="cls-1" d="M308.667,96A6.667,6.667,0,0,0,302,102.667V124.53a6.456,6.456,0,0,0-1.653-.2,6.305,6.305,0,0,0-4.563,2.105l-11.51,12.788a24.7,24.7,0,0,0-12.233,20.107H272v15A1.667,1.667,0,0,0,273.667,176H297a1.667,1.667,0,0,0,1.667-1.667V168.1l14.595-26.453a15.011,15.011,0,0,0,2.072-7.6v-31.37A6.667,6.667,0,0,0,308.667,96ZM312,134.037a11.723,11.723,0,0,1-1.633,5.955l-14.833,26.87a1.666,1.666,0,0,0-.2.8v5h-20V160.542A21.391,21.391,0,0,1,286.157,142a1.666,1.666,0,0,0,.415-.333l11.688-13a3.032,3.032,0,0,1,4.5,4.065L289.1,147.753,291.567,150l13.655-15.02a6.333,6.333,0,0,0,.112-8.392V102.667a3.333,3.333,0,1,1,6.667,0Z" transform="translate(406.667 3452)"/>
    <path id="Path_93" data-name="Path 93" class="cls-1" d="M177.667,41.667h-3.333a18.317,18.317,0,0,0-15,7.833V38.333H161A18.355,18.355,0,0,0,179.333,20a1.667,1.667,0,0,0-1.667-1.667h-3.333a18.317,18.317,0,0,0-15,7.833V15H161A13.348,13.348,0,0,0,174.333,1.667,1.667,1.667,0,0,0,172.667,0h-3.333a13.333,13.333,0,0,0-11.667,6.893A13.333,13.333,0,0,0,146,0h-3.333A1.667,1.667,0,0,0,141,1.667,13.348,13.348,0,0,0,154.333,15H156V26.167a18.317,18.317,0,0,0-15-7.833h-3.333A1.667,1.667,0,0,0,136,20a18.355,18.355,0,0,0,18.333,18.333H156V49.5a18.317,18.317,0,0,0-15-7.833h-3.333A1.667,1.667,0,0,0,136,43.333a18.355,18.355,0,0,0,18.333,18.333H156V75h3.333V61.667H161a18.355,18.355,0,0,0,18.333-18.333A1.667,1.667,0,0,0,177.667,41.667Zm-3.333-20h1.575A15.022,15.022,0,0,1,161,35h-1.575A15.022,15.022,0,0,1,174.333,21.667Zm-5-18.333h1.528A10.017,10.017,0,0,1,161,11.667h-1.528A10.017,10.017,0,0,1,169.333,3.333Zm-15,8.333a10.017,10.017,0,0,1-9.862-8.333H146a10.017,10.017,0,0,1,9.862,8.333Zm0,23.333a15.022,15.022,0,0,1-14.908-13.333H141A15.022,15.022,0,0,1,155.908,35Zm0,23.333A15.022,15.022,0,0,1,139.425,45H141a15.022,15.022,0,0,1,14.908,13.333Zm6.667,0h-1.575A15.022,15.022,0,0,1,174.333,45h1.575A15.022,15.022,0,0,1,161,58.333Z" transform="translate(514.333 3528)"/>
  </g>
</svg>
