<svg id="Group_43" data-name="Group 43" xmlns="http://www.w3.org/2000/svg" viewBox="0 0 106.759 90.745">
  <defs>
    <style>
      .cls-1 {
        fill: #fff;
      }
    </style>
  </defs>
  <path id="briefcase" class="cls-1" d="M101.4,20.514H97.862V15.176H80.069v5.338H72.952V10.2a5.71,5.71,0,0,0-5.7-5.7H39.511a5.71,5.71,0,0,0-5.7,5.7V20.514H26.69V15.176H8.9v5.338H5.356A5.363,5.363,0,0,0,0,25.87v64.02a5.363,5.363,0,0,0,5.356,5.356H101.4a5.363,5.363,0,0,0,5.356-5.356V25.87A5.363,5.363,0,0,0,101.4,20.514ZM83.628,18.734H94.3v1.779H83.628ZM37.366,10.2a2.148,2.148,0,0,1,2.146-2.146H67.247A2.148,2.148,0,0,1,69.393,10.2V20.514H37.366ZM33.807,24.072H88.966V91.686H17.793V24.072H33.807ZM12.455,18.734H23.131v1.779H12.455Zm-8.9,71.155V25.87a1.8,1.8,0,0,1,1.8-1.8h8.879V91.686H5.356A1.8,1.8,0,0,1,3.559,89.889Zm99.641,0a1.8,1.8,0,0,1-1.8,1.8H92.524V24.072H101.4a1.8,1.8,0,0,1,1.8,1.8Z" transform="translate(0 -4.5)"/>
</svg>
