<svg xmlns="http://www.w3.org/2000/svg" viewBox="0 0 149.157 149.331">
  <defs>
    <style>
      .cls-1 {
        fill: #fff;
      }
    </style>
  </defs>
  <g id="Group_186" data-name="Group 186" transform="translate(-317 -4656.669)">
    <path id="Path_148" data-name="Path 148" class="cls-1" d="M311.567,284.266c-6.72,0-7.467-2.987-7.467-4.48a24.772,24.772,0,0,0,14.933-23.644V254.4a22.306,22.306,0,0,0-22.4-22.4H266.768a2.351,2.351,0,0,0-2.489,2.489,22.345,22.345,0,0,0,5.973,15.182,35.976,35.976,0,0,0-1,7.218,25.152,25.152,0,0,0,14.933,22.9c0,1.493-.747,4.48-7.467,4.48a12.323,12.323,0,0,0-12.444,12.444v12.444h4.978V296.71a7.333,7.333,0,0,1,7.467-7.467c7.715,0,12.444-3.733,12.444-9.955v-1.244a2.391,2.391,0,0,0-1.742-2.24,20.153,20.153,0,0,1-13.191-18.915,15.306,15.306,0,0,1,.249-3.484,22.538,22.538,0,0,0,12.2,3.484h27.377a19.6,19.6,0,0,1-13.191,18.666,2.391,2.391,0,0,0-1.742,2.24v1.493c0,6.222,4.729,9.955,12.444,9.955a7.333,7.333,0,0,1,7.467,7.467v12.444h4.978V296.71A12.323,12.323,0,0,0,311.567,284.266Zm-24.888-32.355a17.414,17.414,0,0,1-17.173-14.933h27.128a17.414,17.414,0,0,1,17.173,14.933Z" transform="translate(134.853 4496.846)"/>
    <path id="Path_149" data-name="Path 149" class="cls-1" d="M149.361,67.2V24.888a9.621,9.621,0,0,0-9.706-9.955H89.877V9.955A9.985,9.985,0,0,0,79.922,0H10.234A9.985,9.985,0,0,0,.279,9.955V64.71q0,15.68,11.2,22.4l2.489-4.231C8.243,79.145,5.257,73.421,5.257,64.71V9.955a4.992,4.992,0,0,1,4.978-4.978H79.922A4.992,4.992,0,0,1,84.9,9.955V57.243a4.992,4.992,0,0,1-4.978,4.978h-44.3A15.56,15.56,0,0,0,20.19,75.661v1.493h4.978v-1A10.469,10.469,0,0,1,35.621,67.2h44.3a9.985,9.985,0,0,0,9.955-9.955h29.866a12.323,12.323,0,0,1,12.444,12.444h4.978a17.315,17.315,0,0,0-17.422-17.422H89.877V19.911h49.777a4.992,4.992,0,0,1,4.978,4.978V67.2a21.7,21.7,0,0,1-4.48,14.435l3.733,3.235A25.048,25.048,0,0,0,149.361,67.2Z" transform="translate(316.721 4656.669)"/>
    <path id="Path_150" data-name="Path 150" class="cls-1" d="M95.567,286.57A7.394,7.394,0,0,1,88.1,279.6,24.968,24.968,0,1,0,55.248,266.66,25.262,25.262,0,0,0,68.19,279.6a7.394,7.394,0,0,1-7.467,6.969,12.323,12.323,0,0,0-12.444,12.444v9.955h4.978v-9.955a7.333,7.333,0,0,1,7.467-7.467A12.323,12.323,0,0,0,73.167,279.1V277.86a2.391,2.391,0,0,0-1.742-2.24,20.138,20.138,0,0,1-13.191-16.177H65.7a3.537,3.537,0,0,0,1.493-.5l5.973-3.982,5.973,3.982a3.537,3.537,0,0,0,1.493.5H97.807A19.722,19.722,0,0,1,84.616,275.62a2.391,2.391,0,0,0-1.742,2.24V279.1a12.323,12.323,0,0,0,12.444,12.444,7.333,7.333,0,0,1,7.467,7.467v9.955h4.978v-9.955A11.968,11.968,0,0,0,95.567,286.57ZM81.381,254.216l-6.72-4.48a2.7,2.7,0,0,0-2.738,0l-6.969,4.48H58.483a19.551,19.551,0,0,1,22.151-17.173,19.811,19.811,0,0,1,17.173,17.173Z" transform="translate(283.654 4497.03)"/>
    <rect id="Rectangle_106" data-name="Rectangle 106" class="cls-1" width="52.266" height="4.978" transform="translate(329.444 4669.114)"/>
    <rect id="Rectangle_107" data-name="Rectangle 107" class="cls-1" width="14.933" height="4.978" transform="translate(329.444 4679.069)"/>
    <rect id="Rectangle_108" data-name="Rectangle 108" class="cls-1" width="37.333" height="4.978" transform="translate(349.355 4679.069)"/>
    <rect id="Rectangle_109" data-name="Rectangle 109" class="cls-1" width="4.978" height="4.978" transform="translate(329.444 4689.024)"/>
    <rect id="Rectangle_110" data-name="Rectangle 110" class="cls-1" width="19.911" height="4.978" transform="translate(339.4 4689.024)"/>
    <rect id="Rectangle_111" data-name="Rectangle 111" class="cls-1" width="22.4" height="4.978" transform="translate(364.288 4689.024)"/>
    <rect id="Rectangle_112" data-name="Rectangle 112" class="cls-1" width="34.844" height="4.978" transform="translate(421.531 4686.536)"/>
    <rect id="Rectangle_113" data-name="Rectangle 113" class="cls-1" width="17.422" height="4.978" transform="translate(411.576 4696.491)"/>
    <rect id="Rectangle_114" data-name="Rectangle 114" class="cls-1" width="22.4" height="4.978" transform="translate(433.975 4696.491)"/>
    <rect id="Rectangle_115" data-name="Rectangle 115" class="cls-1" width="4.978" height="4.978" transform="translate(411.576 4686.536)"/>
  </g>
</svg>
