<svg xmlns="http://www.w3.org/2000/svg" viewBox="4322 3850 83.823 100">
  <defs>
    <style>
      .cls-1 {
        fill: #0544a8;
      }
    </style>
  </defs>
  <g id="Group_159" data-name="Group 159" transform="translate(4219.242 102.5)">
    <path id="Path_110" data-name="Path 110" class="cls-1" d="M124.171,32.412,96.924,24.627v-13.6h17.288v3.132h-2.577a1.467,1.467,0,0,0-1.467,1.467v6.067a1.467,1.467,0,0,0,1.467,1.467h8.089a1.467,1.467,0,0,0,1.467-1.467V15.623a1.467,1.467,0,0,0-1.467-1.467h-2.578V11.023h6.622a1.467,1.467,0,0,0,.4-2.878L95.895.067h0L95.86.057,95.826.049c-.031-.008-.063-.016-.1-.022L95.66.016,95.59.007c-.032,0-.065,0-.1,0l-.036,0H71.191l-.033,0c-.034,0-.067,0-.1.005L70.99.015l-.073.011c-.032.006-.063.014-.093.022l-.036.008-.03.009h0L42.477,8.145a1.467,1.467,0,0,0,.4,2.878H49.5v3.132H46.924a1.467,1.467,0,0,0-1.467,1.467v6.067a1.467,1.467,0,0,0,1.467,1.467h8.089a1.467,1.467,0,0,0,1.467-1.467V15.623a1.467,1.467,0,0,0-1.467-1.467H52.436V11.023H69.724v13.6L42.477,32.412a1.467,1.467,0,0,0,.4,2.878H49.5v3.132H46.924a1.467,1.467,0,0,0-1.467,1.467v6.067a1.467,1.467,0,0,0,1.467,1.467h8.089a1.467,1.467,0,0,0,1.467-1.467V39.889a1.467,1.467,0,0,0-1.467-1.467H52.436V35.29H69.724v14.5l-6,21v0l-.012.041v0l0,.01,0,.005L57.951,91H55.013a1.467,1.467,0,0,0-1.467,1.467v4.6h-3a1.467,1.467,0,1,0,0,2.934H116.1a1.467,1.467,0,1,0,0-2.934h-3v-4.6A1.467,1.467,0,0,0,111.635,91H108.7l-5.755-20.141,0-.009-.013-.047,0-.007-6-21v-14.5h17.288v3.132h-2.577a1.467,1.467,0,0,0-1.467,1.467v6.067a1.467,1.467,0,0,0,1.467,1.467h8.089a1.467,1.467,0,0,0,1.467-1.467V39.889a1.467,1.467,0,0,0-1.467-1.467h-2.578V35.29h6.622a1.467,1.467,0,0,0,.4-2.878ZM118.257,17.09v3.132H113.1V17.09ZM96.924,3.413l16.368,4.676H96.924ZM53.546,17.09v3.132H48.391V17.09Zm0,24.266v3.132H48.391V41.356ZM72.658,2.934H93.99V8.089H72.658ZM93.99,11.023V22.992L76.036,11.023H93.99ZM72.658,12.3,90.611,24.266H72.658Zm0,14.9H93.99v5.155H72.658ZM69.779,69.766l13.545-9.482L96.87,69.766ZM95.309,72.7,83.324,78.693,71.339,72.7ZM75.846,51.467H90.8L83.324,56.7ZM93.99,35.29V47.258L76.037,35.29ZM72.658,36.564,90.612,48.533H72.658ZM53.356,8.089,69.724,3.412V8.089Zm0,24.267,16.368-4.677v4.677H53.356ZM72.036,52.383l8.73,6.111L67.671,67.659ZM66.049,73.336l13.994,7-18.659,9.33Zm41.54,20.6h2.579v3.133H56.481V93.934H72.913a1.467,1.467,0,1,0,0-2.934h-7.64l18.052-9.026L101.376,91H79.454a1.467,1.467,0,1,0,0,2.934H107.59Zm-2.326-4.272L86.6,80.333l13.994-7Zm-6.287-22L85.883,58.493l8.73-6.111Zm-2.053-35.3V27.679l16.368,4.677Zm21.332,9v3.132H113.1V41.356Z" transform="translate(61.346 3747.5)"/>
  </g>
</svg>
