<svg height="512pt" viewBox="0 0 512 512" width="512pt" xmlns="http://www.w3.org/2000/svg"><path d="m503.464844 273.066406h-494.929688c-4.710937 0-8.535156-3.824218-8.535156-8.53125v-34.136718c0-4.707032 3.824219-8.53125 8.535156-8.53125h494.929688c4.710937 0 8.535156 3.824218 8.535156 8.53125v34.136718c0 4.707032-3.824219 8.53125-8.535156 8.53125zm-486.398438-17.066406h477.867188v-17.066406h-477.867188zm0 0"/><path d="m392.535156 51.199219h-273.070312c-4.707032 0-8.53125-3.820313-8.53125-8.53125v-34.132813c0-4.710937 3.824218-8.535156 8.53125-8.535156h273.070312c4.707032 0 8.53125 3.824219 8.53125 8.535156v34.132813c0 4.710937-3.824218 8.53125-8.53125 8.53125zm-264.535156-17.066407h256v-17.066406h-256zm0 0"/><path d="m136.535156 136.535156h-128c-4.710937 0-8.535156-3.824218-8.535156-8.535156v-34.132812c0-4.710938 3.824219-8.535157 8.535156-8.535157h128c4.707032 0 8.53125 3.824219 8.53125 8.535157v34.132812c0 4.710938-3.824218 8.535156-8.53125 8.535156zm-119.46875-17.070312h110.933594v-17.066406h-110.933594zm0 0"/><path d="m503.464844 136.535156h-128c-4.707032 0-8.53125-3.824218-8.53125-8.535156v-34.132812c0-4.710938 3.824218-8.535157 8.53125-8.535157h128c4.710937 0 8.535156 3.824219 8.535156 8.535157v34.132812c0 4.710938-3.824219 8.535156-8.535156 8.535156zm-119.464844-17.070312h110.933594v-17.066406h-110.933594zm0 0"/><path d="m324.265625 512h-136.53125c-4.710937 0-8.535156-3.824219-8.535156-8.535156v-196.265625c0-4.710938 3.824219-8.53125 8.535156-8.53125h136.53125c4.710937 0 8.535156 3.820312 8.535156 8.53125v196.265625c0 4.710937-3.824219 8.535156-8.535156 8.535156zm-128-17.066406h119.46875v-179.199219h-119.46875zm0 0"/><path d="m204.800781 349.867188h-17.066406c-4.710937 0-8.535156-3.824219-8.535156-8.535157 0-4.710937 3.824219-8.53125 8.535156-8.53125h17.066406c4.710938 0 8.53125 3.820313 8.53125 8.53125 0 4.710938-3.820312 8.535157-8.53125 8.535157zm0 0"/><path d="m204.800781 477.867188h-17.066406c-4.710937 0-8.535156-3.824219-8.535156-8.535157 0-4.710937 3.824219-8.53125 8.535156-8.53125h17.066406c4.710938 0 8.53125 3.820313 8.53125 8.53125 0 4.710938-3.820312 8.535157-8.53125 8.535157zm0 0"/><path d="m324.265625 349.867188h-17.066406c-4.710938 0-8.53125-3.824219-8.53125-8.535157 0-4.710937 3.820312-8.53125 8.53125-8.53125h17.066406c4.710937 0 8.535156 3.820313 8.535156 8.53125 0 4.710938-3.824219 8.535157-8.535156 8.535157zm0 0"/><path d="m324.265625 477.867188h-17.066406c-4.710938 0-8.53125-3.824219-8.53125-8.535157 0-4.710937 3.820312-8.53125 8.53125-8.53125h17.066406c4.710937 0 8.535156 3.820313 8.535156 8.53125 0 4.710938-3.824219 8.535157-8.535156 8.535157zm0 0"/><path d="m256 512c-4.710938 0-8.535156-3.824219-8.535156-8.535156v-196.265625c0-4.710938 3.824218-8.53125 8.535156-8.53125s8.535156 3.820312 8.535156 8.53125v196.265625c0 4.710937-3.824218 8.535156-8.535156 8.535156zm0 0"/><path d="m221.867188 426.667969c-4.710938 0-8.535157-3.824219-8.535157-8.535157v-17.066406c0-4.710937 3.824219-8.53125 8.535157-8.53125 4.710937 0 8.53125 3.820313 8.53125 8.53125v17.066406c0 4.710938-3.820313 8.535157-8.53125 8.535157zm0 0"/><path d="m290.132812 426.667969c-4.710937 0-8.53125-3.824219-8.53125-8.535157v-17.066406c0-4.710937 3.820313-8.53125 8.53125-8.53125 4.710938 0 8.535157 3.820313 8.535157 8.53125v17.066406c0 4.710938-3.824219 8.535157-8.535157 8.535157zm0 0"/><path d="m145.066406 418.132812h-85.332031c-4.710937 0-8.535156-3.824218-8.535156-8.53125v-102.402343c0-4.710938 3.824219-8.53125 8.535156-8.53125h85.332031c4.710938 0 8.535156 3.820312 8.535156 8.53125v102.402343c0 4.707032-3.824218 8.53125-8.535156 8.53125zm-76.800781-17.066406h68.269531v-85.332031h-68.269531zm0 0"/><path d="m145.066406 349.867188h-85.332031c-4.710937 0-8.535156-3.824219-8.535156-8.535157 0-4.710937 3.824219-8.53125 8.535156-8.53125h85.332031c4.710938 0 8.535156 3.820313 8.535156 8.53125 0 4.710938-3.824218 8.535157-8.535156 8.535157zm0 0"/><path d="m102.398438 375.464844c-4.707032 0-8.53125-3.820313-8.53125-8.53125v-25.601563c0-4.710937 3.824218-8.53125 8.53125-8.53125 4.710937 0 8.535156 3.820313 8.535156 8.53125v25.601563c0 4.710937-3.824219 8.53125-8.535156 8.53125zm0 0"/><path d="m452.265625 418.132812h-85.332031c-4.710938 0-8.535156-3.824218-8.535156-8.53125v-102.402343c0-4.710938 3.824218-8.53125 8.535156-8.53125h85.332031c4.710937 0 8.535156 3.820312 8.535156 8.53125v102.402343c0 4.707032-3.824219 8.53125-8.535156 8.53125zm-76.800781-17.066406h68.269531v-85.332031h-68.269531zm0 0"/><path d="m452.265625 349.867188h-85.332031c-4.710938 0-8.535156-3.824219-8.535156-8.535157 0-4.710937 3.824218-8.53125 8.535156-8.53125h85.332031c4.710937 0 8.535156 3.820313 8.535156 8.53125 0 4.710938-3.824219 8.535157-8.535156 8.535157zm0 0"/><path d="m409.601562 375.464844c-4.710937 0-8.535156-3.820313-8.535156-8.53125v-25.601563c0-4.710937 3.824219-8.53125 8.535156-8.53125 4.707032 0 8.53125 3.820313 8.53125 8.53125v25.601563c0 4.710937-3.824218 8.53125-8.53125 8.53125zm0 0"/><path d="m273.066406 196.265625h-34.132812c-4.710938 0-8.535156-3.820313-8.535156-8.53125v-25.601563h-25.597657c-4.710937 0-8.535156-3.824218-8.535156-8.53125v-34.136718c0-4.707032 3.824219-8.53125 8.535156-8.53125h25.597657v-25.601563c0-4.710937 3.824218-8.53125 8.535156-8.53125h34.132812c4.710938 0 8.535156 3.820313 8.535156 8.53125v25.601563h25.597657c4.710937 0 8.535156 3.824218 8.535156 8.53125v34.136718c0 4.707032-3.824219 8.53125-8.535156 8.53125h-25.597657v25.601563c0 4.710937-3.824218 8.53125-8.535156 8.53125zm-25.601562-17.066406h17.070312v-25.597657c0-4.710937 3.820313-8.535156 8.53125-8.535156h25.601563v-17.066406h-25.601563c-4.710937 0-8.53125-3.824219-8.53125-8.535156v-25.597656h-17.070312v25.597656c0 4.710937-3.820313 8.535156-8.53125 8.535156h-25.601563v17.066406h25.601563c4.710937 0 8.53125 3.824219 8.53125 8.535156zm0 0"/><path d="m486.398438 512h-460.796876c-4.710937 0-8.535156-3.824219-8.535156-8.535156v-238.929688c0-4.710937 3.824219-8.535156 8.535156-8.535156h460.796876c4.710937 0 8.535156 3.824219 8.535156 8.535156v238.929688c0 4.710937-3.824219 8.535156-8.535156 8.535156zm-452.265626-17.066406h443.734376v-221.867188h-443.734376zm0 0"/><path d="m375.464844 238.933594h-238.929688c-4.710937 0-8.535156-3.824219-8.535156-8.535156v-187.730469c0-4.710938 3.824219-8.535157 8.535156-8.535157h238.929688c4.710937 0 8.535156 3.824219 8.535156 8.535157v187.730469c0 4.710937-3.824219 8.535156-8.535156 8.535156zm-230.398438-17.066406h221.867188v-170.667969h-221.867188zm0 0"/><path d="m136.535156 238.933594h-102.402344c-4.710937 0-8.53125-3.824219-8.53125-8.535156v-102.398438c0-4.710938 3.820313-8.535156 8.53125-8.535156h102.402344c4.707032 0 8.53125 3.824218 8.53125 8.535156v102.398438c0 4.710937-3.824218 8.535156-8.53125 8.535156zm-93.867187-17.066406h85.332031v-85.332032h-85.332031zm0 0"/><path d="m477.867188 238.933594h-102.402344c-4.707032 0-8.53125-3.824219-8.53125-8.535156v-102.398438c0-4.710938 3.824218-8.535156 8.53125-8.535156h102.402344c4.710937 0 8.53125 3.824218 8.53125 8.535156v102.398438c0 4.710937-3.820313 8.535156-8.53125 8.535156zm-93.867188-17.066406h85.332031v-85.332032h-85.332031zm0 0"/><path d="m102.398438 170.667969h-34.132813c-4.710937 0-8.53125-3.824219-8.53125-8.535157 0-4.710937 3.820313-8.53125 8.53125-8.53125h34.132813c4.710937 0 8.535156 3.820313 8.535156 8.53125 0 4.710938-3.824219 8.535157-8.535156 8.535157zm0 0"/><path d="m102.398438 204.800781h-34.132813c-4.710937 0-8.53125-3.824219-8.53125-8.535156s3.820313-8.53125 8.53125-8.53125h34.132813c4.710937 0 8.535156 3.820313 8.535156 8.53125s-3.824219 8.535156-8.535156 8.535156zm0 0"/><path d="m443.734375 170.667969h-34.132813c-4.710937 0-8.535156-3.824219-8.535156-8.535157 0-4.710937 3.824219-8.53125 8.535156-8.53125h34.132813c4.710937 0 8.53125 3.820313 8.53125 8.53125 0 4.710938-3.820313 8.535157-8.53125 8.535157zm0 0"/><path d="m443.734375 204.800781h-34.132813c-4.710937 0-8.535156-3.824219-8.535156-8.535156s3.824219-8.53125 8.535156-8.53125h34.132813c4.710937 0 8.53125 3.820313 8.53125 8.53125s-3.820313 8.535156-8.53125 8.535156zm0 0"/></svg>