<svg xmlns="http://www.w3.org/2000/svg" viewBox="4560 3571 100 100">
  <defs>
    <style>
      .cls-1 {
        fill: #0544a8;
      }
    </style>
  </defs>
  <g id="Group_161" data-name="Group 161" transform="translate(4918 -442)">
    <path id="Path_128" data-name="Path 128" class="cls-1" d="M98.333,86.667H96.667v-60A6.667,6.667,0,0,0,90,20H80V6.667A6.667,6.667,0,0,0,73.333,0H26.667A6.667,6.667,0,0,0,20,6.667V20H10a6.667,6.667,0,0,0-6.667,6.667v60H1.667A1.667,1.667,0,0,0,0,88.333v5A6.667,6.667,0,0,0,6.667,100H93.333A6.667,6.667,0,0,0,100,93.333v-5A1.667,1.667,0,0,0,98.333,86.667Zm-75-80a3.333,3.333,0,0,1,3.333-3.333H73.333a3.333,3.333,0,0,1,3.333,3.333v6.667H23.333Zm0,10H76.667V65a3.333,3.333,0,0,1-3.333,3.333H26.667A3.333,3.333,0,0,1,23.333,65Zm3.333,55H73.333A6.667,6.667,0,0,0,80,65V30h6.667V76.667H13.333V30H20V65A6.667,6.667,0,0,0,26.667,71.667Zm-20-45A3.333,3.333,0,0,1,10,23.333H20v3.333H11.667A1.667,1.667,0,0,0,10,28.333v50A1.667,1.667,0,0,0,11.667,80H88.333A1.667,1.667,0,0,0,90,78.333v-50a1.667,1.667,0,0,0-1.667-1.667H80V23.333H90a3.333,3.333,0,0,1,3.333,3.333v60H65a1.667,1.667,0,0,0-1.178.487L60.977,90H39.023l-2.845-2.847A1.667,1.667,0,0,0,35,86.667H6.667Zm90,66.667a3.333,3.333,0,0,1-3.333,3.333H6.667a3.333,3.333,0,0,1-3.333-3.333V90H34.31l2.845,2.845a1.666,1.666,0,0,0,1.178.488H61.667a1.666,1.666,0,0,0,1.178-.488L65.69,90H96.667Z" transform="translate(-358 4013)"/>
    <rect id="Rectangle_83" data-name="Rectangle 83" class="cls-1" width="3.333" height="3.333" transform="translate(-309.667 4096.333)"/>
    <rect id="Rectangle_84" data-name="Rectangle 84" class="cls-1" width="43.333" height="3.333" transform="translate(-329.667 4066.333)"/>
    <rect id="Rectangle_85" data-name="Rectangle 85" class="cls-1" width="40" height="3.333" transform="translate(-329.667 4073)"/>
    <rect id="Rectangle_86" data-name="Rectangle 86" class="cls-1" width="33.333" height="3.333" transform="translate(-319.667 4059.667)"/>
    <rect id="Rectangle_87" data-name="Rectangle 87" class="cls-1" width="3.333" height="3.333" transform="translate(-331.333 4019.667)"/>
    <rect id="Rectangle_88" data-name="Rectangle 88" class="cls-1" width="3.333" height="3.333" transform="translate(-324.667 4019.667)"/>
    <rect id="Rectangle_89" data-name="Rectangle 89" class="cls-1" width="3.333" height="3.333" transform="translate(-318 4019.667)"/>
    <rect id="Rectangle_90" data-name="Rectangle 90" class="cls-1" width="3.333" height="3.333" transform="translate(-326.333 4059.667)"/>
    <path id="Path_129" data-name="Path 129" class="cls-1" d="M177.333,124.267l-2-2.667-6.667,5a1.667,1.667,0,0,0,0,2.667l6.667,5,2-2.667-4.888-3.667Z" transform="translate(-491 3916.733)"/>
    <path id="Path_130" data-name="Path 130" class="cls-1" d="M276.2,126.933a1.673,1.673,0,0,0-.333-.333l-6.667-5-2,2.667,4.888,3.667L267.2,131.6l2,2.667,6.667-5A1.667,1.667,0,0,0,276.2,126.933Z" transform="translate(-569.533 3916.733)"/>
    <rect id="Rectangle_91" data-name="Rectangle 91" class="cls-1" width="17.95" height="3.333" transform="translate(-312.881 4052.383) rotate(-68.191)"/>
  </g>
</svg>
