<svg xmlns="http://www.w3.org/2000/svg" viewBox="0 0 87.647 87.647">
  <defs>
    <style>
      .cls-1 {
        fill: #fff;
      }
    </style>
  </defs>
  <g id="Group_188" data-name="Group 188" transform="translate(-3858.001 -3847)">
    <path id="Path_137" data-name="Path 137" class="cls-1" d="M43.823,0A43.823,43.823,0,1,0,87.647,43.824,43.824,43.824,0,0,0,43.823,0ZM20.67,66.275a2.1,2.1,0,0,1-2.105-2.1V23.477a2.1,2.1,0,0,1,2.105-2.1H66.977a2.1,2.1,0,0,1,2.105,2.1V46h-4.95V26.247H23.467V53.425H25.79l9.384-14.633,6.271,9.778,3.114,4.856h2.7l-4.465-6.961,2.91-4.537,7.374,11.5h2.973V63.7H62.9v2.578H20.67ZM60.554,35.364A4.356,4.356,0,1,1,56.2,31.009,4.356,4.356,0,0,1,60.554,35.364Zm10.168,25.3V67.51H65.929V60.667H59.084V55.872h6.845V49.028h4.794v6.843h6.844v4.795Z" transform="translate(3858.001 3846.999)"/>
  </g>
</svg>
