<svg xmlns="http://www.w3.org/2000/svg" viewBox="5102 3566 110 110">
  <defs>
    <style>
      .cls-1 {
        fill: #0544a8;
      }
    </style>
  </defs>
  <g id="Group_158" data-name="Group 158" transform="translate(4177 34.16)">
    <path id="Path_98" data-name="Path 98" class="cls-1" d="M99.355,455.1a7.1,7.1,0,0,1-7.1-7.1H88.71a7.1,7.1,0,1,1-14.194,0H70.968a7.1,7.1,0,1,1-14.194,0H53.226a7.1,7.1,0,1,1-14.194,0H35.484a7.1,7.1,0,1,1-14.194,0H17.742a7.1,7.1,0,1,1-14.194,0H0a10.64,10.64,0,0,0,19.516,5.873,10.631,10.631,0,0,0,17.742,0,10.631,10.631,0,0,0,17.742,0,10.631,10.631,0,0,0,17.742,0,10.631,10.631,0,0,0,17.742,0A10.64,10.64,0,0,0,110,448h-3.548A7.1,7.1,0,0,1,99.355,455.1Zm0,0" transform="translate(925 3183.195)"/>
    <path id="Path_99" data-name="Path 99" class="cls-1" d="M104.158,81.093l5.323-5.323a1.766,1.766,0,0,0,.52-1.254V65.645a1.772,1.772,0,0,0-1.774-1.774h-1.774V58.548a1.772,1.772,0,0,0-1.774-1.774H102.9V0H99.355V4.588l-7.1,7.1-7.1-7.1V0H81.613V56.774H78.065V44.355a1.772,1.772,0,0,0-1.774-1.774H65.645V33.71a1.772,1.772,0,0,0-1.774-1.774H55V12.419a1.772,1.772,0,0,0-1.774-1.774H40.806v-7.1H37.258v7.1H33.71V0H30.161V10.645H28.387a1.772,1.772,0,0,0-1.774,1.774V31.935H17.742a1.772,1.772,0,0,0-1.774,1.774v8.871H5.323a1.772,1.772,0,0,0-1.774,1.774V63.871H1.774A1.772,1.772,0,0,0,0,65.645v8.871a1.766,1.766,0,0,0,.52,1.254l5.323,5.323a1.766,1.766,0,0,0,1.254.52v9.658a7.073,7.073,0,0,1-3.548-6.11H0a10.64,10.64,0,0,0,19.516,5.873,10.631,10.631,0,0,0,17.742,0,10.631,10.631,0,0,0,17.742,0,10.631,10.631,0,0,0,17.742,0,10.631,10.631,0,0,0,17.742,0A10.64,10.64,0,0,0,110,85.161h-3.548a7.073,7.073,0,0,1-3.548,6.11V81.613A1.766,1.766,0,0,0,104.158,81.093ZM67.419,63.871V60.323H102.9v3.548ZM94.767,49.677l4.588-4.588v9.176Zm2.079,7.1H87.67l4.588-4.588Zm-4.588-9.606L85.9,40.806l6.362-6.362,6.362,6.362Zm7.1-10.645-4.588-4.588,4.588-4.588Zm-7.1-7.1L85.9,23.065,92.258,16.7l6.362,6.362Zm-2.509,2.509-4.588,4.588V27.348Zm0,17.742-4.588,4.588V45.089ZM99.355,9.606v9.176l-4.588-4.588Zm-9.606,4.588-4.588,4.588V9.606Zm-59.588,0h21.29V31.935H30.161ZM19.516,35.484H62.1v7.1H19.516ZM7.1,46.129H74.516V56.774H65.645a1.772,1.772,0,0,0-1.774,1.774v5.323H7.1ZM3.548,73.782V67.419h102.9v6.362l-4.283,4.283H7.831ZM21.29,85.161H17.742a7.1,7.1,0,0,1-7.1,7.1V81.613H24.839v9.658A7.073,7.073,0,0,1,21.29,85.161Zm17.742,0H35.484a7.1,7.1,0,0,1-7.1,7.1V81.613H42.581v9.658A7.073,7.073,0,0,1,39.032,85.161Zm17.742,0H53.226a7.1,7.1,0,0,1-7.1,7.1V81.613H63.871V92.258A7.1,7.1,0,0,1,56.774,85.161Zm17.742,0H70.968a7.073,7.073,0,0,1-3.548,6.11V81.613H81.613V92.258A7.1,7.1,0,0,1,74.516,85.161Zm24.839,7.1a7.1,7.1,0,0,1-7.1-7.1H88.71a7.073,7.073,0,0,1-3.548,6.11V81.613H99.355Zm0,0" transform="translate(925 3531.84)"/>
    <path id="Path_100" data-name="Path 100" class="cls-1" d="M56.871,224h-7.1A1.772,1.772,0,0,0,48,225.774v7.1a1.772,1.772,0,0,0,1.774,1.774h7.1a1.772,1.772,0,0,0,1.774-1.774v-7.1A1.772,1.772,0,0,0,56.871,224ZM55.1,231.1H51.548v-3.548H55.1Zm0,0" transform="translate(887.645 3357.517)"/>
    <path id="Path_101" data-name="Path 101" class="cls-1" d="M120.871,224h-7.1A1.772,1.772,0,0,0,112,225.774v7.1a1.772,1.772,0,0,0,1.774,1.774h7.1a1.772,1.772,0,0,0,1.774-1.774v-7.1A1.772,1.772,0,0,0,120.871,224Zm-1.774,7.1h-3.548v-3.548H119.1Zm0,0" transform="translate(837.839 3357.517)"/>
    <path id="Path_102" data-name="Path 102" class="cls-1" d="M184.871,224h-7.1A1.772,1.772,0,0,0,176,225.774v7.1a1.772,1.772,0,0,0,1.774,1.774h7.1a1.772,1.772,0,0,0,1.774-1.774v-7.1A1.772,1.772,0,0,0,184.871,224Zm-1.774,7.1h-3.548v-3.548H183.1Zm0,0" transform="translate(788.032 3357.517)"/>
    <path id="Path_103" data-name="Path 103" class="cls-1" d="M448,320h3.548v3.548H448Zm0,0" transform="translate(576.355 3282.807)"/>
    <path id="Path_104" data-name="Path 104" class="cls-1" d="M416,320h3.548v3.548H416Zm0,0" transform="translate(601.258 3282.807)"/>
    <path id="Path_105" data-name="Path 105" class="cls-1" d="M384,320h3.548v3.548H384Zm0,0" transform="translate(626.161 3282.807)"/>
    <path id="Path_106" data-name="Path 106" class="cls-1" d="M352,320h3.548v3.548H352Zm0,0" transform="translate(651.065 3282.807)"/>
    <path id="Path_107" data-name="Path 107" class="cls-1" d="M320,320h3.548v3.548H320Zm0,0" transform="translate(675.968 3282.807)"/>
    <path id="Path_108" data-name="Path 108" class="cls-1" d="M152,80h14.194v3.548H152Zm0,0" transform="translate(806.71 3469.582)"/>
    <path id="Path_109" data-name="Path 109" class="cls-1" d="M152,112h14.194v3.548H152Zm0,0" transform="translate(806.71 3444.678)"/>
  </g>
</svg>
