<svg height="496pt" viewBox="0 0 496 496" width="496pt" xmlns="http://www.w3.org/2000/svg"><path d="m448 480c-17.648438 0-32-14.351562-32-32h-16c0 17.648438-14.351562 32-32 32s-32-14.351562-32-32h-16c0 17.648438-14.351562 32-32 32s-32-14.351562-32-32h-16c0 17.648438-14.351562 32-32 32s-32-14.351562-32-32h-16c0 17.648438-14.351562 32-32 32s-32-14.351562-32-32h-16c0 17.648438-14.351562 32-32 32s-32-14.351562-32-32h-16c0 26.472656 21.527344 48 48 48 16.6875 0 31.390625-8.566406 40-21.519531 8.609375 12.960937 23.3125 21.519531 40 21.519531s31.390625-8.566406 40-21.519531c8.609375 12.960937 23.3125 21.519531 40 21.519531s31.390625-8.566406 40-21.519531c8.609375 12.960937 23.3125 21.519531 40 21.519531s31.390625-8.566406 40-21.519531c8.609375 12.960937 23.3125 21.519531 40 21.519531s31.390625-8.566406 40-21.519531c8.609375 12.960937 23.3125 21.519531 40 21.519531 26.472656 0 48-21.527344 48-48h-16c0 17.648438-14.351562 32-32 32zm0 0"/><path d="m469.65625 365.65625 24-24c1.503906-1.496094 2.34375-3.527344 2.34375-5.65625v-40c0-4.425781-3.574219-8-8-8h-8v-24c0-4.425781-3.574219-8-8-8h-8v-256h-16v20.6875l-32 32-32-32v-20.6875h-16v256h-16v-56c0-4.425781-3.574219-8-8-8h-48v-40c0-4.425781-3.574219-8-8-8h-40v-88c0-4.425781-3.574219-8-8-8h-56v-32h-16v32h-16v-48h-16v48h-8c-4.425781 0-8 3.574219-8 8v88h-40c-4.425781 0-8 3.574219-8 8v40h-48c-4.425781 0-8 3.574219-8 8v88h-8c-4.425781 0-8 3.574219-8 8v40c0 2.128906.839844 4.160156 2.34375 5.65625l24 24c1.496094 1.503906 3.527344 2.34375 5.65625 2.34375v43.550781c-9.519531-5.550781-16-15.757812-16-27.550781h-16c0 26.472656 21.527344 48 48 48 16.6875 0 31.390625-8.566406 40-21.519531 8.609375 12.960937 23.3125 21.519531 40 21.519531s31.390625-8.566406 40-21.519531c8.609375 12.960937 23.3125 21.519531 40 21.519531s31.390625-8.566406 40-21.519531c8.609375 12.960937 23.3125 21.519531 40 21.519531s31.390625-8.566406 40-21.519531c8.609375 12.960937 23.3125 21.519531 40 21.519531s31.390625-8.566406 40-21.519531c8.609375 12.960937 23.3125 21.519531 40 21.519531 26.472656 0 48-21.527344 48-48h-16c0 11.792969-6.480469 22-16 27.550781v-43.550781c2.128906 0 4.160156-.839844 5.65625-2.34375zm-165.65625-77.65625v-16h160v16zm123.3125-64 20.6875-20.6875v41.375zm9.375 32h-41.375l20.6875-20.6875zm-20.6875-43.3125-28.6875-28.6875 28.6875-28.6875 28.6875 28.6875zm32-48-20.6875-20.6875 20.6875-20.6875zm-32-32-28.6875-28.6875 28.6875-28.6875 28.6875 28.6875zm-11.3125 11.3125-20.6875 20.6875v-41.375zm0 80-20.6875 20.6875v-41.375zm43.3125-180.6875v41.375l-20.6875-20.6875zm-43.3125 20.6875-20.6875 20.6875v-41.375zm-268.6875 0h96v80h-96zm-48 96h192v32h-192zm-56 48h304v48h-40c-4.425781 0-8 3.574219-8 8v24h-256zm-16 124.6875v-28.6875h464v28.6875l-19.3125 19.3125h-425.375zm80 51.3125h-16c0 17.648438-14.351562 32-32 32v-48h64v43.550781c-9.519531-5.550781-16-15.757812-16-27.550781zm80 0h-16c0 17.648438-14.351562 32-32 32v-48h64v43.550781c-9.519531-5.550781-16-15.757812-16-27.550781zm80 0h-16c0 17.648438-14.351562 32-32 32v-48h80v48c-17.648438 0-32-14.351562-32-32zm80 0h-16c0 11.792969-6.480469 22-16 27.550781v-43.550781h64v48c-17.648438 0-32-14.351562-32-32zm112 32c-17.648438 0-32-14.351562-32-32h-16c0 11.792969-6.480469 22-16 27.550781v-43.550781h64zm0 0"/><path d="m88 224h-32c-4.425781 0-8 3.574219-8 8v32c0 4.425781 3.574219 8 8 8h32c4.425781 0 8-3.574219 8-8v-32c0-4.425781-3.574219-8-8-8zm-8 32h-16v-16h16zm0 0"/><path d="m152 224h-32c-4.425781 0-8 3.574219-8 8v32c0 4.425781 3.574219 8 8 8h32c4.425781 0 8-3.574219 8-8v-32c0-4.425781-3.574219-8-8-8zm-8 32h-16v-16h16zm0 0"/><path d="m216 224h-32c-4.425781 0-8 3.574219-8 8v32c0 4.425781 3.574219 8 8 8h32c4.425781 0 8-3.574219 8-8v-32c0-4.425781-3.574219-8-8-8zm-8 32h-16v-16h16zm0 0"/><path d="m448 320h16v16h-16zm0 0"/><path d="m416 320h16v16h-16zm0 0"/><path d="m384 320h16v16h-16zm0 0"/><path d="m352 320h16v16h-16zm0 0"/><path d="m320 320h16v16h-16zm0 0"/><path d="m152 80h64v16h-64zm0 0"/><path d="m152 112h64v16h-64zm0 0"/></svg>