<svg xmlns="http://www.w3.org/2000/svg" viewBox="4538 2286 102 102">
  <defs>
    <style>
      .cls-1 {
        fill: #fff;
      }
    </style>
  </defs>
  <g id="play-button_1_" data-name="play-button (1)" transform="translate(4538 2286)">
    <path id="Path_30" data-name="Path 30" class="cls-1" d="M51,5.1A45.9,45.9,0,1,1,5.1,51,45.952,45.952,0,0,1,51,5.1M51,0a51,51,0,1,0,51,51A51,51,0,0,0,51,0Z"/>
    <path id="Path_31" data-name="Path 31" class="cls-1" d="M182.678,127.036l-27.156-17.872c-4.687-3.084-8.522-1.015-8.522,4.6v37.613c0,5.61,3.84,7.686,8.536,4.614l27.13-17.755C187.36,135.155,187.365,130.119,182.678,127.036Zm-3.619,7.444-24.115,15.781c-1.564,1.025-2.844.333-2.844-1.537V116.4c0-1.87,1.278-2.559,2.841-1.53l24.123,15.875A2.07,2.07,0,0,1,179.059,134.48Z" transform="translate(-111.3 -81.569)"/>
  </g>
</svg>
