<svg xmlns="http://www.w3.org/2000/svg" viewBox="0 0 96.401 89.971">
  <defs>
    <style>
      .cls-1 {
        fill: #0544a8;
      }
    </style>
  </defs>
  <g id="project" transform="translate(0.001 -0.5)">
    <path id="Path_235" data-name="Path 235" class="cls-1" d="M50.332,90.086a1.872,1.872,0,0,1-.367-.038,1.948,1.948,0,0,1-.352-.107,1.894,1.894,0,0,1-.326-.174A1.818,1.818,0,0,1,49,89.534a1.882,1.882,0,0,1-.407-2.053,1.929,1.929,0,0,1,.174-.324A1.785,1.785,0,0,1,49,86.872a1.965,1.965,0,0,1,.286-.235,1.86,1.86,0,0,1,.678-.28,1.841,1.841,0,0,1,.734,0,1.89,1.89,0,0,1,.352.107,1.866,1.866,0,0,1,.326.174,1.894,1.894,0,0,1,.7.845,2,2,0,0,1,.107.352,1.854,1.854,0,0,1,.036.369,1.9,1.9,0,0,1-.552,1.331,1.785,1.785,0,0,1-.286.233,1.867,1.867,0,0,1-.326.174,1.948,1.948,0,0,1-.352.107A1.866,1.866,0,0,1,50.332,90.086Zm0,0" transform="translate(-39.328 -69.661)"/>
    <path id="Path_236" data-name="Path 236" class="cls-1" d="M420.234,407.8a1.818,1.818,0,0,1-.368-.038,1.867,1.867,0,0,1-.352-.107,1.842,1.842,0,0,1-.326-.174,1.824,1.824,0,0,1-.52-.52,1.856,1.856,0,0,1-.173-.325,1.887,1.887,0,0,1-.107-.352,1.812,1.812,0,0,1,0-.734,1.923,1.923,0,0,1,.28-.678,1.784,1.784,0,0,1,.234-.286,1.889,1.889,0,0,1,.286-.235,1.841,1.841,0,0,1,.326-.174,1.883,1.883,0,0,1,1.088-.107,1.956,1.956,0,0,1,.352.107,1.884,1.884,0,0,1,.61.409,1.881,1.881,0,0,1,.235.286,1.819,1.819,0,0,1,.174.326,1.894,1.894,0,0,1,.107.352,1.885,1.885,0,0,1,0,.734,1.894,1.894,0,0,1-.107.352,1.814,1.814,0,0,1-.174.325,1.888,1.888,0,0,1-.235.287,1.794,1.794,0,0,1-.286.233,1.9,1.9,0,0,1-.324.174,1.938,1.938,0,0,1-.354.107A1.873,1.873,0,0,1,420.234,407.8Zm0,0" transform="translate(-339.583 -327.552)"/>
    <path id="Path_237" data-name="Path 237" class="cls-1" d="M202.386,407.8H161.828a1.883,1.883,0,1,1,0-3.766h40.558a1.883,1.883,0,1,1,0,3.766Zm0,0" transform="translate(-129.831 -327.553)"/>
    <path id="Path_238" data-name="Path 238" class="cls-1" d="M354.793,125.749a1.837,1.837,0,0,1-.369-.036,1.89,1.89,0,0,1-.352-.107,2,2,0,0,1-.325-.174,1.858,1.858,0,0,1-.287-.233,1.93,1.93,0,0,1-.233-.286,2.036,2.036,0,0,1-.174-.326,1.89,1.89,0,0,1-.107-.352,1.835,1.835,0,0,1-.036-.369,1.9,1.9,0,0,1,.549-1.331,2.047,2.047,0,0,1,.287-.233,2,2,0,0,1,.325-.174,1.879,1.879,0,0,1,2.567,2.107,1.951,1.951,0,0,1-.107.352,2.008,2.008,0,0,1-.174.326,1.942,1.942,0,0,1-.233.286A1.9,1.9,0,0,1,354.793,125.749Zm0,0" transform="translate(-286.464 -98.612)"/>
    <path id="Path_239" data-name="Path 239" class="cls-1" d="M94.312,12.054H76.246L71.014,1.544A1.882,1.882,0,0,0,69.328.5h-2a1.882,1.882,0,0,0-1.685,1.044L60.411,12.054H52.269V2.383A1.883,1.883,0,0,0,50.386.5h-14A1.883,1.883,0,0,0,34.5,2.383v9.672H20.465A10.961,10.961,0,0,0,3.01,9.7,10.563,10.563,0,0,0,0,17.41V78.7C0,78.9,0,79.112,0,79.322a10.683,10.683,0,0,0,3.1,7.737,11.4,11.4,0,0,0,8.1,3.413H94.518A1.883,1.883,0,0,0,96.4,88.588V14.143A2.091,2.091,0,0,0,94.312,12.054ZM73.2,51.944H70.212V33.351a1.883,1.883,0,0,0-3.766,0V51.944H63.459V18.906H73.2ZM63.459,55.71H73.2v3.059H63.459ZM73.2,14.382v.758H63.459v-.758l2.017-4.053h5.7ZM63.459,62.535H73.2v7.188H63.459ZM68.329,4.6l.977,1.964H67.351ZM38.268,4.266H48.5v9.881H46.629a1.883,1.883,0,1,0,0,3.766H48.5V28.768H46.629a1.883,1.883,0,1,0,0,3.766H48.5V43.39H46.629a1.883,1.883,0,1,0,0,3.766H48.5V58.011H46.629a1.883,1.883,0,1,0,0,3.766H48.5v7.945H38.268ZM5.714,12.316a7.08,7.08,0,0,1,5.129-2.17,7.243,7.243,0,0,1,7.235,7.235V71.023a10.963,10.963,0,0,0-5.191-2.53V26.021a1.883,1.883,0,1,0-3.766,0V68.44a10.991,10.991,0,0,0-5.352,2.465V17.382c0-.02,0-.04,0-.06A6.828,6.828,0,0,1,5.714,12.316ZM92.635,86.705H11.207a7.613,7.613,0,0,1-5.41-2.28,6.946,6.946,0,0,1-2.027-5.037c0-.021,0-.04,0-.061s0-.017,0-.026v-.537a6.83,6.83,0,0,1,1.945-4.528,7.08,7.08,0,0,1,5.129-2.17A7.243,7.243,0,0,1,18.078,79.3a1.883,1.883,0,1,0,3.766,0V17.382a10.945,10.945,0,0,0-.112-1.561H34.5V71.6a1.883,1.883,0,0,0,1.883,1.883h14A1.883,1.883,0,0,0,52.269,71.6V15.82h7.425V71.6a1.883,1.883,0,0,0,1.883,1.883h13.5A1.883,1.883,0,0,0,76.963,71.6V15.82H92.635Zm0,0"/>
  </g>
</svg>
