<svg xmlns="http://www.w3.org/2000/svg" viewBox="0 0 39.18 39.181">
  <defs>
    <style>
      .cls-1 {
        fill: #fff;
      }
    </style>
  </defs>
  <g id="Symbol_8_3" data-name="Symbol 8 – 3" transform="translate(-9031 -4972)">
    <path id="Path_32" data-name="Path 32" class="cls-1" d="M37.028,2.155A7.075,7.075,0,0,0,31.837,0H7.349A7.077,7.077,0,0,0,2.158,2.155,7.077,7.077,0,0,0,0,7.346V31.834a7.077,7.077,0,0,0,2.155,5.191,7.076,7.076,0,0,0,5.191,2.156H31.837a7.359,7.359,0,0,0,7.346-7.347V7.346A7.077,7.077,0,0,0,37.028,2.155ZM32.653,20.406a1.526,1.526,0,0,1-.995,1.5,1.776,1.776,0,0,1-.638.127,1.518,1.518,0,0,1-1.148-.485L26.2,17.881,12.579,31.5a1.6,1.6,0,0,1-2.3,0l-2.6-2.6a1.6,1.6,0,0,1,0-2.3L21.3,12.983,17.63,9.31a1.472,1.472,0,0,1-.357-1.786,1.525,1.525,0,0,1,1.505-.995H31.021a1.655,1.655,0,0,1,1.633,1.633V20.406Z" transform="translate(9030.997 4972)"/>
  </g>
</svg>
