<svg xmlns="http://www.w3.org/2000/svg" viewBox="0 0 211.056 211.056">
  <defs>
    <style>
      .cls-1 {
        fill: #fff;
      }
    </style>
  </defs>
  <g id="Group_187" data-name="Group 187" transform="translate(-7814.796 -991.092) rotate(-43)">
    <path id="Path_151" data-name="Path 151" class="cls-1" d="M106.313,43.718a44.262,44.262,0,1,0,12.964,31.3,43.972,43.972,0,0,0-12.964-31.3Zm-4.166,58.429a38.369,38.369,0,1,1,0-54.263A38.119,38.119,0,0,1,102.147,102.147Z" transform="translate(4951.326 6110.327)"/>
    <path id="Path_152" data-name="Path 152" class="cls-1" d="M182.122,67.642a2.946,2.946,0,0,0-3.062,5.034,28.759,28.759,0,0,1,5.385,4.236,2.946,2.946,0,0,0,4.166-4.166A34.646,34.646,0,0,0,182.122,67.642Z" transform="translate(4862.135 6088.189)"/>
    <path id="Path_153" data-name="Path 153" class="cls-1" d="M82.049,70.709a2.936,2.936,0,0,0,2.083-.863,28.744,28.744,0,0,1,24.67-8.041,2.946,2.946,0,0,0,.907-5.822,34.656,34.656,0,0,0-29.743,9.7,2.946,2.946,0,0,0,2.083,5.029Z" transform="translate(4921.969 6095.256)"/>
    <path id="Path_154" data-name="Path 154" class="cls-1" d="M89.249,197.7a28.793,28.793,0,0,1-5.117-4.071,2.946,2.946,0,0,0-4.166,4.166,34.679,34.679,0,0,0,6.166,4.9,2.946,2.946,0,1,0,3.117-5Z" transform="translate(4921.969 6011.957)"/>
    <path id="Path_155" data-name="Path 155" class="cls-1" d="M153.338,193.626a28.482,28.482,0,0,1-23.633,8.183,2.946,2.946,0,1,0-.694,5.851,35.12,35.12,0,0,0,4.142.246A34.305,34.305,0,0,0,157.5,197.792a2.946,2.946,0,1,0-4.166-4.166Z" transform="translate(4893.244 6011.957)"/>
    <path id="Path_156" data-name="Path 156" class="cls-1" d="M145.755,128.458,110.1,92.8a2.946,2.946,0,0,0-4.166,0l-1.426,1.426-3.5-3.5a56.269,56.269,0,1,0-10.277,10.277l3.5,3.5L92.8,105.933a2.946,2.946,0,0,0,0,4.166l35.655,35.655a12.23,12.23,0,1,0,17.3-17.3ZM20.65,92.034A50.476,50.476,0,0,1,92.034,20.65,50.476,50.476,0,0,1,20.65,92.034ZM95.216,97.16q.5-.473.984-.96t.96-.984l3.181,3.181L98.4,100.34Zm46.372,44.428a6.345,6.345,0,0,1-8.963,0L99.054,108.016l8.963-8.963,33.571,33.571A6.345,6.345,0,0,1,141.588,141.588Z" transform="translate(4970 6129)"/>
  </g>
</svg>
