<?xml version="1.0" encoding="utf-8"?>
<!-- Generator: Adobe Illustrator 21.0.0, SVG Export Plug-In . SVG Version: 6.00 Build 0)  -->
<svg version="1.1" id="Capa_1" xmlns="http://www.w3.org/2000/svg" xmlns:xlink="http://www.w3.org/1999/xlink" x="0px" y="0px"
	 viewBox="0 0 512 512" style="enable-background:new 0 0 512 512;" xml:space="preserve">
<style type="text/css">
	.st0{fill:#FFFFFF;}
</style>
<g>
	<g>
		<path class="st0" d="M465.1,165.9l-139.5-39.9V56.4h88.5v16h-13.2c-4.1,0-7.5,3.4-7.5,7.5V111c0,4.2,3.4,7.5,7.5,7.5h41.4
			c4.1,0,7.5-3.4,7.5-7.5V80c0-4.2-3.4-7.5-7.5-7.5h-13.2v-16h33.9c3.7,0,6.9-2.8,7.4-6.5c0.5-3.7-1.8-7.2-5.4-8.3L320.4,0.3
			c0,0,0,0,0,0l-0.2,0c-0.1,0-0.1,0-0.2,0c-0.2,0-0.3-0.1-0.5-0.1c-0.1,0-0.2,0-0.4-0.1c-0.1,0-0.2,0-0.4,0c-0.2,0-0.3,0-0.5,0
			c-0.1,0-0.1,0-0.2,0H318c0,0,0,0,0,0H194.1c0,0,0,0,0,0h-0.1c-0.1,0-0.1,0-0.2,0c-0.2,0-0.3,0-0.5,0c-0.1,0-0.2,0-0.3,0
			c-0.1,0-0.2,0-0.4,0.1c-0.2,0-0.3,0.1-0.5,0.1c-0.1,0-0.1,0-0.2,0l-0.2,0c0,0,0,0,0,0L46.9,41.7c-3.6,1-5.9,4.6-5.4,8.3
			s3.7,6.5,7.4,6.5h33.9v16H69.6c-4.1,0-7.5,3.4-7.5,7.5V111c0,4.2,3.4,7.5,7.5,7.5H111c4.1,0,7.5-3.4,7.5-7.5V80
			c0-4.2-3.4-7.5-7.5-7.5H97.9v-16h88.5v69.7L46.9,165.9c-3.6,1-5.9,4.6-5.4,8.3s3.7,6.5,7.4,6.5h33.9v16H69.6
			c-4.1,0-7.5,3.4-7.5,7.5v31.1c0,4.1,3.4,7.5,7.5,7.5H111c4.1,0,7.5-3.4,7.5-7.5v-31.1c0-4.1-3.4-7.5-7.5-7.5H97.9v-16h88.5v74.3
			l-30.7,107.5c0,0,0,0,0,0l-0.1,0.2c0,0,0,0,0,0l0,0c0,0,0,0,0,0l-29.5,103.1h-15c-4.1,0-7.5,3.4-7.5,7.5V497H88.2
			c-4.1,0-7.5,3.4-7.5,7.5s3.4,7.5,7.5,7.5H111H401h22.9c4.1,0,7.5-3.4,7.5-7.5s-3.4-7.5-7.5-7.5h-15.4v-23.6c0-4.1-3.4-7.5-7.5-7.5
			h-15l-29.5-103.1c0,0,0,0,0,0l-0.1-0.2c0,0,0,0,0,0l-30.7-107.5v-74.3h88.5v16h-13.2c-4.1,0-7.5,3.4-7.5,7.5v31.1
			c0,4.1,3.4,7.5,7.5,7.5h41.4c4.1,0,7.5-3.4,7.5-7.5v-31.1c0-4.1-3.4-7.5-7.5-7.5h-13.2v-16h33.9c3.7,0,6.9-2.8,7.4-6.5
			C471,170.5,468.7,167,465.1,165.9z M434.9,87.5v16h-26.4v-16H434.9z M325.6,17.5l83.8,23.9h-83.8L325.6,17.5L325.6,17.5z
			 M103.5,87.5v16H77.1v-16H103.5z M103.5,211.7v16H77.1v-16H103.5z M201.4,15h109.2v26.4H201.4V15z M310.6,56.4v61.3l-91.9-61.3
			C218.7,56.4,310.6,56.4,310.6,56.4z M201.4,63l91.9,61.3h-91.9L201.4,63L201.4,63z M201.4,139.3h109.2v26.4H201.4V139.3z
			 M186.6,357.2l69.4-48.5l69.4,48.5H186.6z M317.4,372.2L256,402.9l-61.4-30.7H317.4z M217.7,263.5h76.6L256,290.3L217.7,263.5z
			 M310.6,180.7V242l-91.9-61.3H310.6z M201.4,187.2l91.9,61.3h-91.9V187.2z M102.6,41.4l83.8-23.9v23.9H102.6z M102.6,165.7
			l83.8-23.9v23.9L102.6,165.7L102.6,165.7z M198.2,268.2l44.7,31.3l-67,46.9L198.2,268.2z M167.6,375.5l71.6,35.8l-95.5,47.8
			L167.6,375.5z M380.2,480.9L380.2,480.9L380.2,480.9C380.2,480.9,380.3,480.9,380.2,480.9l13.2,0v16h0H118.6v-16h13.2c0,0,0,0,0,0
			c0,0,0,0,0,0h0.1c0,0,0,0,0,0h70.8c4.1,0,7.5-3.4,7.5-7.5s-3.4-7.5-7.5-7.5h-39.1l92.4-46.2l92.4,46.2H236.2
			c-4.1,0-7.5,3.4-7.5,7.5s3.4,7.5,7.5,7.5L380.2,480.9C380.2,480.9,380.2,480.9,380.2,480.9z M368.3,459.1l-95.5-47.8l71.6-35.8
			L368.3,459.1z M336.1,346.4l-67-46.9l44.7-31.3L336.1,346.4z M325.6,165.7v-23.9l83.8,23.9H325.6z M434.9,211.7v16h-26.4v-16
			H434.9z"/>
	</g>
</g>
</svg>
