<?xml version="1.0" encoding="utf-8"?>
<!-- Generator: Adobe Illustrator 21.0.0, SVG Export Plug-In . SVG Version: 6.00 Build 0)  -->
<svg version="1.1" id="Capa_1" xmlns="http://www.w3.org/2000/svg" xmlns:xlink="http://www.w3.org/1999/xlink" x="0px" y="0px"
	 viewBox="0 0 480 480" style="enable-background:new 0 0 480 480;" xml:space="preserve">
<style type="text/css">
	.st0{fill:#FFFFFF;}
</style>
<g>
	<g>
		<path class="st0" d="M230.4,51.1l-15-8.2c-4.5-2.5-9.9-2.6-14.6-0.4l-34.2,16.4L125,34.3c-1.8-1-3.9-1.4-5.9-0.9l-32,7.5
			c-2.8,0.7-5.1,2.8-5.9,5.6s0,5.8,2,7.8l29.9,30.2L90.5,95.3L50.8,80.5c-3.1-1.2-6.6-0.3-8.7,2.2c-2.2,2.4-2.7,6-1.2,8.9l24,48
			c1.4,2.7,4.1,4.4,7.2,4.4h24c1.4,0,2.7-0.4,3.9-1l29.9-16.8l-1.8,25.2c-0.2,2.9,1.1,5.6,3.5,7.2c1.3,0.9,2.9,1.4,4.5,1.4
			c1.2,0,2.4-0.3,3.6-0.8l32-16c2-1,3.5-2.9,4.1-5.1l10-36.5l44.2-22.1c5.4-2.7,8.7-8.1,8.8-14C238.8,59.5,235.7,54,230.4,51.1z
			 M104.7,53.2l14.9-3.5l29.6,17.5l-20.8,9.9L104.7,53.2z M175.3,88.9c-2,1-3.5,2.9-4.1,5.1l-10,36.5l-16.2,8.1l1.9-26
			c0.2-2.9-1.2-5.8-3.7-7.3c-1.3-0.8-2.8-1.3-4.3-1.3c-1.3,0-2.7,0.3-3.9,1l-41.1,23h-17l-12.7-25.4l23.9,8.9c2,0.8,4.3,0.6,6.2-0.3
			l35.9-17.2h0l39.4-18.9c0,0,0,0,0,0L207.8,57l15,8.2L175.3,88.9z"/>
	</g>
</g>
<g>
	<g>
		<path class="st0" d="M211.7,293.1c-0.1-0.1-0.1-0.2-0.1-0.2c-0.1-0.2-0.3-0.3-0.4-0.5c-2.1-2.6-4.3-5.1-6.6-7.5
			c-0.1-0.1-0.2-0.3-0.3-0.4c-2.4-2.4-5-4.7-7.6-6.9c-0.9-0.7-1.9-1.4-2.8-2.1c-1.7-1.3-3.4-2.6-5.2-3.7c-1.3-0.9-2.7-1.7-4.1-2.5
			c-1.5-0.9-3-1.7-4.5-2.5c-1.5-0.8-3-1.5-4.5-2.2c-1.6-0.7-3.1-1.4-4.7-2c-1.5-0.6-3-1.2-4.6-1.7c-1.8-0.6-3.5-1.1-5.3-1.6
			c-1.4-0.4-2.9-0.8-4.4-1.1c-2.1-0.5-4.3-0.8-6.5-1.1c-1.2-0.2-2.4-0.4-3.6-0.6c-3.4-0.4-6.9-0.6-10.4-0.6s-7,0.2-10.4,0.6
			c-1.2,0.1-2.4,0.4-3.6,0.6c-2.2,0.3-4.3,0.6-6.5,1.1c-1.5,0.3-2.9,0.7-4.4,1.1c-1.8,0.5-3.6,1-5.3,1.6c-1.6,0.5-3.1,1.1-4.6,1.7
			c-1.6,0.6-3.2,1.3-4.7,2c-1.5,0.7-3,1.4-4.5,2.2c-1.5,0.8-3,1.7-4.5,2.5c-1.4,0.8-2.7,1.6-4.1,2.5c-1.8,1.2-3.5,2.4-5.2,3.7
			c-0.9,0.7-1.9,1.4-2.8,2.1c-2.7,2.2-5.2,4.5-7.6,6.9c-0.1,0.1-0.2,0.3-0.3,0.4c-2.3,2.4-4.5,4.9-6.6,7.5c-0.1,0.2-0.3,0.3-0.4,0.5
			c-0.1,0.1-0.1,0.2-0.1,0.2C47.6,309.4,40,329.8,40,352c0,22.8,8,43.8,21.4,60.3c0,0.1,0.1,0.2,0.1,0.2c0.1,0.1,0.2,0.2,0.3,0.3
			c2,2.5,4.2,4.9,6.5,7.2c1.1,1.1,2.3,2.1,3.4,3.1c1.3,1.2,2.6,2.3,3.9,3.4c1.4,1.1,2.8,2.1,4.2,3.2c1.2,0.9,2.5,1.8,3.7,2.6
			c1.5,1,3,1.9,4.6,2.8c1.3,0.8,2.7,1.5,4,2.2c1.5,0.8,3.1,1.6,4.7,2.3c1.5,0.7,3.1,1.3,4.6,1.9c1.5,0.6,3,1.2,4.6,1.7
			c1.8,0.6,3.6,1.1,5.4,1.5c1.4,0.4,2.8,0.8,4.2,1.1c2.2,0.5,4.4,0.8,6.6,1.1c1.1,0.2,2.3,0.4,3.4,0.5c3.4,0.4,6.8,0.6,10.3,0.6
			s6.9-0.2,10.3-0.6c1.2-0.1,2.3-0.4,3.4-0.5c2.2-0.3,4.4-0.6,6.6-1.1c1.4-0.3,2.8-0.7,4.2-1.1c1.8-0.5,3.6-1,5.4-1.5
			c1.5-0.5,3-1.1,4.6-1.7c1.6-0.6,3.1-1.2,4.6-1.9c1.6-0.7,3.1-1.5,4.7-2.3c1.4-0.7,2.7-1.4,4-2.2c1.6-0.9,3.1-1.8,4.6-2.8
			c1.3-0.8,2.5-1.7,3.7-2.6c1.4-1,2.9-2.1,4.2-3.2c1.3-1.1,2.6-2.3,3.9-3.4c1.2-1,2.3-2,3.4-3.1c2.3-2.3,4.5-4.7,6.5-7.2
			c0.1-0.1,0.2-0.2,0.3-0.3c0-0.1,0.1-0.2,0.1-0.2C224,395.8,232,374.8,232,352C232,329.8,224.4,309.4,211.7,293.1z M85.4,290.1
			c0.8-0.7,1.7-1.3,2.5-1.9c1.2-0.9,2.3-1.8,3.5-2.6c1.6-1.1,3.2-2,4.9-3c0.4-0.2,0.7-0.4,1.1-0.6c-3.1,5-5.9,10.6-8.2,16.7
			c-3.3-1-6.6-2.1-9.5-3.4C81.5,293.5,83.4,291.7,85.4,290.1z M69.2,308.1c4.7,2.2,9.8,4.1,15.2,5.8c-2.4,9.7-3.8,20.2-4.2,31.3
			H56.3C57.5,331.6,62.1,318.9,69.2,308.1z M70.3,397.5C63,387,58.1,374.6,56.6,361.2h23.7c0.6,11,2.2,21.5,4.8,31
			C79.9,393.8,74.9,395.5,70.3,397.5z M96.5,421.5c-1.6-0.9-3.1-1.8-4.6-2.8c-0.6-0.4-1.3-0.9-1.9-1.3c-1.4-1-2.8-2-4.2-3.1
			c-0.7-0.6-1.3-1.1-2-1.7c-0.8-0.7-1.6-1.5-2.4-2.2c2.8-1,5.8-1.9,8.7-2.8c2.1,5.3,4.6,10.1,7.3,14.5
			C97.1,421.8,96.8,421.6,96.5,421.5z M128,430.3c-8.7-3.7-16.5-13.3-22.2-26.5c7.1-1.2,14.5-1.9,22.2-2.2V430.3z M128,385.4
			c-9.5,0.4-18.7,1.4-27.4,3.1c-2.2-8.4-3.7-17.6-4.3-27.3H128V385.4z M128,345.2H96.2c0.4-9.7,1.8-18.9,3.9-27.4
			c8.9,1.7,18.2,2.8,28,3.2V345.2z M128,305c-8-0.4-15.8-1.2-23.1-2.6c5.8-14.4,13.9-24.8,23.1-28.8V305z M202.8,308.1
			c7.1,10.8,11.7,23.5,12.9,37.1h-23.9c-0.4-11.1-1.9-21.6-4.2-31.3C193,312.2,198.1,310.3,202.8,308.1z M175.7,282.6
			c1.6,0.9,3.3,1.9,4.9,3c1.2,0.8,2.4,1.7,3.5,2.6c0.8,0.6,1.7,1.2,2.6,1.9c2,1.6,3.9,3.4,5.7,5.2c-3,1.2-6.2,2.3-9.5,3.4
			c-2.3-6.1-5.1-11.7-8.2-16.7C175,282.2,175.3,282.4,175.7,282.6z M144,273.7c9.2,3.9,17.3,14.4,23.1,28.8
			c-7.4,1.3-15.1,2.2-23.1,2.6V273.7z M144,321c9.7-0.4,19.1-1.5,28-3.2c2.1,8.5,3.4,17.7,3.9,27.4H144V321z M144,430.3v-28.8
			c7.6,0.3,15.1,1,22.2,2.2C160.5,417,152.7,426.6,144,430.3z M144,385.4v-24.2h31.7c-0.6,9.7-2.1,18.9-4.3,27.3
			C162.7,386.8,153.5,385.8,144,385.4z M188.2,412.5c-0.7,0.6-1.3,1.2-2,1.7c-1.4,1.1-2.8,2.1-4.2,3.1c-0.6,0.4-1.2,0.9-1.9,1.3
			c-1.5,1-3.1,1.9-4.6,2.8c-0.3,0.2-0.6,0.3-0.9,0.5c2.7-4.4,5.2-9.2,7.3-14.5c3,0.9,6,1.7,8.7,2.8
			C189.9,411,189.1,411.8,188.2,412.5z M201.7,397.5c-4.6-2-9.6-3.7-14.7-5.3c2.5-9.6,4.2-20,4.8-31h23.7
			C213.9,374.6,209,387,201.7,397.5z"/>
	</g>
</g>
<g>
	<g>
		<path class="st0" d="M472,16H272V8c0-4.4-3.6-8-8-8H8C3.6,0,0,3.6,0,8v464c0,4.4,3.6,8,8,8h256c4.4,0,8-3.6,8-8v-8h200
			c4.4,0,8-3.6,8-8V24C480,19.6,476.4,16,472,16z M256,464H16V16h240V464z M464,448H272V32h192V448z"/>
	</g>
</g>
<g>
	<g>
		<path class="st0" d="M200,176H56c-4.4,0-8-3.6-8-8v-8H32v8c0,13.2,10.8,24,24,24h144c4.4,0,8,3.6,8,8s-3.6,8-8,8h-48
			c-13.2,0-24,10.8-24,24v8h16v-8c0-4.4,3.6-8,8-8h48c13.2,0,24-10.8,24-24S213.2,176,200,176z"/>
	</g>
</g>
<g>
	<g>
		<rect x="32" y="128" class="st0" width="16" height="16"/>
	</g>
</g>
<g>
	<g>
		<path class="st0" d="M360,80c-13.2,0-24,10.8-24,24s10.8,24,24,24s24-10.8,24-24S373.2,80,360,80z M360,112c-4.4,0-8-3.6-8-8
			s3.6-8,8-8s8,3.6,8,8S364.4,112,360,112z"/>
	</g>
</g>
<g>
	<g>
		<path class="st0" d="M440,48H296c-4.4,0-8,3.6-8,8v168c0,4.4,3.6,8,8,8h144c4.4,0,8-3.6,8-8V56C448,51.6,444.4,48,440,48z
			 M432,216H304v-16h56h72V216z M311,184l17-25.6l17,25.6H311z M374.4,184l25.6-40.9l25.6,40.9H374.4z M432,164.1l-25.2-40.3
			c-2.9-4.7-10.6-4.7-13.6,0l-33.4,53.5l-25.1-37.7c-3-4.5-10.3-4.5-13.3,0l-17.3,26V64h128V164.1z"/>
	</g>
</g>
<g>
	<g>
		<rect x="296" y="296" class="st0" width="144" height="16"/>
	</g>
</g>
<g>
	<g>
		<rect x="297" y="336" class="st0" width="144" height="16"/>
	</g>
</g>
<g>
	<g>
		<rect x="296" y="376" class="st0" width="144" height="16"/>
	</g>
</g>
<g>
	<g>
		<rect x="328" y="416" class="st0" width="16" height="16"/>
	</g>
</g>
<g>
	<g>
		<rect x="360" y="416" class="st0" width="16" height="16"/>
	</g>
</g>
<g>
	<g>
		<rect x="392" y="416" class="st0" width="16" height="16"/>
	</g>
</g>
<g>
	<g>
		<rect x="320" y="256" class="st0" width="96" height="16"/>
	</g>
</g>
</svg>
