<?xml version="1.0" encoding="utf-8"?>
<!-- Generator: Adobe Illustrator 21.0.0, SVG Export Plug-In . SVG Version: 6.00 Build 0)  -->
<svg version="1.1" id="Capa_1" xmlns="http://www.w3.org/2000/svg" xmlns:xlink="http://www.w3.org/1999/xlink" x="0px" y="0px"
	 viewBox="0 0 512 512" style="enable-background:new 0 0 512 512;" xml:space="preserve">
<style type="text/css">
	.st0{fill:#FFFFFF;}
</style>
<g>
	<g>
		<path class="st0" d="M70.1,453.1L70.1,453.1c-4.5-3.4-10.8-2.6-14.1,1.8c-3.4,4.4-2.5,10.7,1.9,14L58,469c1.8,1.4,4,2.1,6.1,2.1
			c3,0,6-1.4,7.9-3.9C75.3,462.7,74.5,456.5,70.1,453.1z"/>
	</g>
</g>
<g>
	<g>
		<path class="st0" d="M70.1,371.1L70.1,371.1c-4.5-3.4-10.8-2.6-14.1,1.8c-3.4,4.4-2.5,10.7,1.9,14L58,387c1.8,1.4,4,2.1,6.1,2.1
			c3,0,6-1.4,7.9-3.9C75.3,380.7,74.5,374.5,70.1,371.1z"/>
	</g>
</g>
<g>
	<g>
		<path class="st0" d="M70.1,289.1L70.1,289.1c-4.5-3.4-10.8-2.6-14.1,1.8c-3.4,4.4-2.5,10.7,1.9,14L58,305c1.8,1.4,4,2.1,6.1,2.1
			c3,0,6-1.4,7.9-3.9C75.3,298.7,74.5,292.5,70.1,289.1z"/>
	</g>
</g>
<g>
	<g>
		<path class="st0" d="M454,453.1L454,453.1c-4.5-3.4-10.8-2.5-14.1,1.9c-3.3,4.4-2.5,10.7,1.9,14l0.1,0.1c1.8,1.4,3.9,2,6,2
			c3,0,6-1.4,8-4C459.3,462.7,458.4,456.4,454,453.1z"/>
	</g>
</g>
<g>
	<g>
		<path class="st0" d="M454,371.1L454,371.1c-4.5-3.4-10.8-2.5-14.1,1.9c-3.3,4.4-2.5,10.7,1.9,14l0.1,0.1c1.8,1.4,3.9,2,6,2
			c3,0,6-1.4,8-4C459.3,380.7,458.4,374.4,454,371.1z"/>
	</g>
</g>
<g>
	<g>
		<path class="st0" d="M454,289.1L454,289.1c-4.5-3.4-10.8-2.5-14.1,1.9s-2.5,10.7,1.9,14l0.1,0.1c1.8,1.4,3.9,2,6,2c3,0,6-1.4,8-4
			C459.3,298.7,458.4,292.4,454,289.1z"/>
	</g>
</g>
<g>
	<g>
		<path class="st0" d="M369.5,328h-0.1c-5.5,0-10,4.5-10,10s4.5,10,10,10h0.1c5.5,0,10-4.5,10-10S375,328,369.5,328z"/>
	</g>
</g>
<g>
	<g>
		<path class="st0" d="M142.7,410h-0.1c-5.5,0-10,4.5-10,10s4.5,10,10,10h0.1c5.5,0,10-4.5,10-10S148.2,410,142.7,410z"/>
	</g>
</g>
<g>
	<g>
		<path class="st0" d="M80.8,185.2c-1.9-1.9-4.4-2.9-7.1-2.9s-5.2,1.1-7.1,2.9c-1.9,1.9-2.9,4.4-2.9,7.1c0,2.6,1.1,5.2,2.9,7.1
			c1.9,1.9,4.4,2.9,7.1,2.9c2.6,0,5.2-1.1,7.1-2.9c1.9-1.9,2.9-4.4,2.9-7.1C83.7,189.6,82.7,187.1,80.8,185.2z"/>
	</g>
</g>
<g>
	<g>
		<path class="st0" d="M502,246h-41.5c17.9-10.3,29.9-29.6,29.9-51.6c0-22.9-13-43.3-32.8-53.2c3.4-7.6,5.2-15.8,5.2-24.3
			c0-32.8-26.7-59.5-59.5-59.5c-10.3,0-20.3,2.6-29.1,7.6c-11.6-8.2-25.5-12.6-39.9-12.6c-1,0-1.9,0-2.9,0.1
			C320.8,21.6,291.4,0,258.2,0c-29.9,0-57,17.3-69.8,43.9c-2.4-0.2-4.8-0.3-7.2-0.3c-31.4,0-59.4,19-71.3,47.3
			c-2.1-0.6-4.3-1.2-6.5-1.7c1.1-12.8,5.2-22.6,12.1-29.2c6-5.7,12.1-6.9,12.3-7l-0.1,0l0,0c2.1-0.3,4.1-1.3,5.6-2.8
			c1.9-1.9,2.9-4.4,2.9-7.1c0-2.6-1.1-5.2-2.9-7.1c-1.9-1.9-4.4-2.9-7.1-2.9c-0.6,0-1.1,0.1-1.7,0.2l0,0c-5.9,0.9-14.1,4.3-21.5,11
			V10c0-5.5-4.5-10-10-10h-24c-5.5,0-10,4.5-10,10v37.4C47.7,33.3,35.2,25,34.3,24.4c-4.6-3-10.8-1.7-13.8,2.9
			c-3,4.6-1.7,10.8,2.9,13.8c0.3,0.2,30.6,20.5,35.1,49.6C24.6,100.9,0,130.7,0,165.7c0,14.6,8.3,49.5,16.4,80.3H10
			c-5.5,0-10,4.5-10,10v246c0,5.5,4.5,10,10,10h492c5.5,0,10-4.5,10-10V256C512,250.5,507.5,246,502,246z M181.3,63.6
			c3.8,0,7.7,0.4,11.5,1.1c4.9,1,9.7-1.8,11.4-6.5c8.1-22.9,29.8-38.2,54.1-38.2c23.6,0,44.7,14.7,53.3,36.1
			c-27,9.5-46.4,35.2-46.4,65.4c0,5.5,4.5,10,10,10s10-4.5,10-10c0-27.2,22.1-49.2,49.3-49.2c12,0,23.6,4.4,32.7,12.4
			c3.6,3.2,8.8,3.4,12.6,0.5c6.9-5.2,15.1-7.9,23.7-7.9c21.8,0,39.5,17.7,39.5,39.5c0,8.6-2.7,16.7-7.8,23.6c-2,2.7-2.5,6.2-1.4,9.3
			s3.7,5.5,7,6.3c17.6,4.4,29.8,20.2,29.8,38.3c0,21.8-17.7,39.5-39.5,39.5c-2.5,0-5-0.2-7.5-0.7c-4.8-0.9-9.6,1.8-11.3,6.5
			c-0.8,2.2-1.8,4.3-2.9,6.4h-12.6l40.9-58.7c1.5-2.2,2.1-4.9,1.6-7.6s-2-5-4.3-6.5l-29.2-19.4c-2.3-1.5-5.1-2-7.7-1.4
			c-2.7,0.6-5,2.3-6.4,4.6L377,181.1l11.9-60.4c1.1-5.4-2.4-10.6-7.8-11.7l-25.4-5.2c-2.6-0.5-5.4,0-7.6,1.5s-3.8,3.8-4.3,6.5
			l-3.3,17.5h-23.3c-5.5,0-10,4.5-10,10v57.5c-6.6-34-36.7-59.8-72.6-59.8c-16.2,0-31.6,5.1-44.5,14.9c-10.6,8-19,18.9-24,31.2
			c1.3-7.5,1.9-13.3,1.9-17.4c0-13.6-3.7-26.3-10.2-37.5c5.3-14.3,18.9-24,34.4-24c2.5,0,4.9,0.2,7.3,0.7c4.9,1,9.8-1.8,11.4-6.5
			c2.1-6.1,5.9-11.5,10.8-15.7c4.2-3.6,4.7-9.9,1.1-14.1c-3.6-4.2-9.9-4.7-14.1-1.1c-5.5,4.7-10,10.4-13.4,16.7
			c-1.1-0.1-2.1-0.1-3.2-0.1c-19.9,0-37.9,10.4-48,26.7c-4.8-4.6-10.1-8.6-15.9-12C137.1,77.8,157.8,63.6,181.3,63.6z M365.6,238.7
			l37.7-62.4l11.9,8L372.2,246h-8L365.6,238.7z M353.1,198.8V171c0.1-0.2,0.1-0.4,0.2-0.6l8.4-44.9l5.7,1.2L353.1,198.8z
			 M327.2,228.7c0-0.4,0.1-0.8,0.1-1.2v-78.2h5.9V246H330c0-0.6,0-1.3,0-1.9C330,238.7,329,233.5,327.2,228.7z M190,182
			c-0.3,0-0.6,0-0.9,0c9.8-15.2,26.9-25,45.5-25c26.4,0,48.5,19.1,53.1,44.2c-13.8,0.1-26.1,7.1-33.7,17.7
			C241.2,196.9,217.3,182,190,182z M243.1,246H138.5h-1.6c4.7-25,26.7-44,53.1-44S238.4,221,243.1,246z M288,221.2
			c12.1,0,22,10.3,22,22.9c0,0.6,0,1.3-0.1,1.9h-43.8c0-0.6-0.1-1.3-0.1-1.9C266,231.5,275.9,221.2,288,221.2z M79.2,20h4v67.1
			c-1.3,0-2.7,0-4,0.1V20z M20.6,157.8c0.6,0.1,1.3,0.2,1.9,0.2H72c5.5,0,10-4.5,10-10s-4.5-10-10-10H27.6c10.8-18.4,32-31,56.4-31
			c35.3,0,64,26.3,64,58.7c0,2.6-0.4,7.4-2,16.3h-39.7c-5.5,0-10,4.5-10,10s4.5,10,10,10h33.2c-12.1,11.4-20.4,26.7-22.8,44H37.1
			C26.2,205.2,20,176.2,20,165.7C20,163,20.2,160.4,20.6,157.8z M492,328h-88c-5.5,0-10,4.5-10,10s4.5,10,10,10h88v62H176.6
			c-5.5,0-10,4.5-10,10s4.5,10,10,10H492v62H20v-62h88c5.5,0,10-4.5,10-10s-4.5-10-10-10H20v-62h315.4c5.5,0,10-4.5,10-10
			s-4.5-10-10-10H20v-62h9.5H492V328z"/>
	</g>
</g>
<g>
	<g>
		<path class="st0" d="M245.5,54h-0.1c-5.5,0-10,4.5-10,10s4.5,10,10,10h0.1c5.5,0,10-4.5,10-10S251,54,245.5,54z"/>
	</g>
</g>
</svg>
