<?xml version="1.0" encoding="iso-8859-1"?>
<!-- Generator: Adobe Illustrator 19.0.0, SVG Export Plug-In . SVG Version: 6.00 Build 0)  -->
<svg version="1.1" id="Capa_1" xmlns="http://www.w3.org/2000/svg" xmlns:xlink="http://www.w3.org/1999/xlink" x="0px" y="0px"
	 viewBox="0 0 480.005 480.005" style="enable-background:new 0 0 480.005 480.005;" xml:space="preserve">
<g>
	<g>
		<rect x="64.005" y="324.003" width="16" height="16"/>
	</g>
</g>
<g>
	<g>
		<rect x="176.005" y="324.003" width="16" height="16"/>
	</g>
</g>
<g>
	<g>
		<rect x="288.005" y="324.003" width="16" height="16"/>
	</g>
</g>
<g>
	<g>
		<rect x="400.005" y="324.003" width="16" height="16"/>
	</g>
</g>
<g>
	<g>
		<path d="M480.005,292.003v-133.6c0.009-14.179-7.082-27.42-18.888-35.272c-5.463-3.631-11.697-5.937-18.208-6.736
			c12.486-9.827,20.165-24.53,21.096-40.392h8v-16h-9.128c-3.792-26.4-17.112-39.048-32.392-44.432
			c-1.428-2.198-3.859-3.536-6.48-3.568h-32c-2.621,0.031-5.052,1.37-6.48,3.568c-15.28,5.384-28.6,18.032-32.392,44.432h-9.128v16
			h8c0.931,15.862,8.61,30.565,21.096,40.392c-20.303,2.498-35.899,19.183-37.024,39.608h-32.072c-13.255,0-24,10.745-24,24
			s10.745,24,24,24h56v80h-24v-56c0-4.418-3.582-8-8-8h-64c-4.418,0-8,3.582-8,8v56h-32v-56c0-4.418-3.582-8-8-8h-64
			c-4.418,0-8,3.582-8,8v56h-8v-80h40c13.255,0,24-10.745,24-24s-10.745-24-24-24h-32.072c-1.125-20.425-16.721-37.11-37.024-39.608
			c12.486-9.827,20.165-24.53,21.096-40.392h8v-16h-9.128c-3.792-26.4-17.112-39.048-32.392-44.432
			c-1.428-2.198-3.859-3.536-6.48-3.568h-32c-2.621,0.031-5.052,1.37-6.48,3.568c-15.28,5.384-28.6,18.032-32.392,44.432H8.005v16h8
			c0.931,15.862,8.61,30.565,21.096,40.392c-21.206,2.613-37.127,20.641-37.096,42.008v133.6h16v-133.6
			c-0.043-13.659,10.392-25.071,24-26.248v23.848c0,4.418,3.582,8,8,8h48c4.418,0,8-3.582,8-8v-23.824
			c13.599,1.177,24.03,12.574,24,26.224v5.6c0,4.418,3.582,8,8,8h40c4.418,0,8,3.582,8,8s-3.582,8-8,8h-48c-4.418,0-8,3.582-8,8v88
			h-8v-56c0-4.418-3.582-8-8-8h-64c-4.418,0-8,3.582-8,8v58.8c-24.967,8.805-38.069,36.184-29.263,61.151
			c5.799,16.443,20.069,28.44,37.263,31.329v48.72h-8c-2.674,0-5.172,1.335-6.656,3.56l-16,24
			c-2.452,3.675-1.461,8.643,2.215,11.095c1.315,0.877,2.86,1.345,4.441,1.345h64c4.418,0.001,8.001-3.581,8.001-7.999
			c0-1.581-0.468-3.126-1.345-4.441l-16-24c-1.484-2.225-3.982-3.56-6.656-3.56h-8v-48h64v72h-16v16h24c4.418,0,8-3.582,8-8v-80h224
			v80c0,4.418,3.582,8,8,8h16v-16h-8v-72h48v48h-8c-2.674,0-5.172,1.335-6.656,3.56l-16,24c-2.452,3.675-1.461,8.643,2.215,11.095
			c1.315,0.877,2.86,1.345,4.441,1.345h64c4.418,0.001,8.001-3.581,8.001-7.999c0-1.581-0.468-3.126-1.345-4.441l-16-24
			c-1.484-2.225-3.982-3.56-6.656-3.56h-8v-48.72c26.112-4.572,43.575-29.446,39.003-55.559
			c-4.003-22.863-23.792-39.587-47.003-39.721h-56v-88c0-4.418-3.582-8-8-8h-64c-4.418,0-8-3.582-8-8s3.582-8,8-8h40
			c4.418,0,8-3.582,8-8v-5.6c-0.042-13.659,10.392-25.071,24-26.248v23.848c0,4.418,3.582,8,8,8h48c4.418,0,8-3.582,8-8v-23.824
			c13.599,1.177,24.03,12.574,24,26.224v133.6H480.005z M48.005,34.211v9.792h16v-15.4c2.65-0.379,5.323-0.579,8-0.6
			c2.677,0.021,5.35,0.221,8,0.6v15.4h16v-9.792c8.239,6.191,13.519,15.54,14.568,25.792H33.437
			C34.486,49.751,39.766,40.402,48.005,34.211z M88.005,148.003h-32v-16h32V148.003z M72.005,116.003c-13.168,0-40-18.512-40-40h80
			C112.005,97.491,85.173,116.003,72.005,116.003z M272.005,236.003h16v24h16v-24h16v48h-48V236.003z M160.005,236.003h16v24h16v-24
			h16v48h-48V236.003z M48.005,236.003h16v24h16v-24h16v48h-48V236.003z M16.005,332.003c0-17.673,14.327-32,32-32h0.248
			c-17.673,12.913-21.532,37.708-8.618,55.382c2.411,3.3,5.318,6.207,8.618,8.618h-0.248
			C30.332,364.003,16.005,349.676,16.005,332.003z M59.725,444.003l5.336,8H30.949l5.336-8H59.725z M72.005,356.003
			c-13.255,0-24-10.745-24-24s10.745-24,24-24s24,10.745,24,24S85.26,356.003,72.005,356.003z M95.757,364.003
			c10.184-7.487,16.213-19.36,16.248-32c-0.035-12.64-6.064-24.513-16.248-32h64.496c-17.673,12.913-21.532,37.708-8.618,55.382
			c2.411,3.3,5.318,6.207,8.618,8.618H95.757z M184.005,356.003c-13.255,0-24-10.745-24-24s10.745-24,24-24s24,10.745,24,24
			S197.26,356.003,184.005,356.003z M207.757,364.003c10.184-7.487,16.213-19.36,16.248-32c-0.035-12.64-6.064-24.513-16.248-32
			h64.496c-17.673,12.913-21.532,37.708-8.618,55.382c2.411,3.3,5.318,6.207,8.618,8.618H207.757z M296.005,356.003
			c-13.255,0-24-10.745-24-24s10.745-24,24-24s24,10.745,24,24S309.26,356.003,296.005,356.003z M443.725,444.003l5.336,8h-34.112
			l5.336-8H443.725z M432.005,300.003c17.673,0,32,14.327,32,32c0,17.673-14.327,32-32,32h-0.248
			c17.673-12.913,21.532-37.708,8.618-55.382c-2.411-3.3-5.318-6.207-8.618-8.618H432.005z M408.005,308.003
			c13.255,0,24,10.745,24,24s-10.745,24-24,24s-24-10.745-24-24S394.75,308.003,408.005,308.003z M384.253,300.003
			c-10.184,7.487-16.213,19.36-16.248,32c0.035,12.64,6.064,24.513,16.248,32h-64.496c17.673-12.913,21.532-37.708,8.618-55.382
			c-2.411-3.3-5.318-6.207-8.618-8.618H384.253z M384.005,34.211v9.792h16v-15.4c5.303-0.8,10.697-0.8,16,0v15.4h16v-9.792
			c8.239,6.191,13.519,15.54,14.568,25.792h-77.136C370.486,49.751,375.767,40.402,384.005,34.211z M424.005,148.003h-32v-16h32
			V148.003z M408.005,116.003c-13.168,0-40-18.512-40-40h80C448.005,97.491,421.173,116.003,408.005,116.003z"/>
	</g>
</g>
<g>
</g>
<g>
</g>
<g>
</g>
<g>
</g>
<g>
</g>
<g>
</g>
<g>
</g>
<g>
</g>
<g>
</g>
<g>
</g>
<g>
</g>
<g>
</g>
<g>
</g>
<g>
</g>
<g>
</g>
</svg>
