<svg xmlns="http://www.w3.org/2000/svg" viewBox="4423 501 156.49 22.142">
  <defs>
    <style>
      .cls-1, .cls-2 {
        fill: #fff;
      }

      .cls-1 {
        font-size: 20px;
        font-family: BebasNeueBold, Bebas Neue;
      }
    </style>
  </defs>
  <g id="Group_13" data-name="Group 13" transform="translate(4158 2)">
    <g id="Group_12" data-name="Group 12" transform="translate(5)">
      <text id="NEXT" class="cls-1" transform="translate(346 515)"><tspan x="0" y="0">NEXT</tspan></text>
      <path id="right-arrow" class="cls-2" d="M21.2,5.007a1.117,1.117,0,0,0-1.587,1.571l8.047,8.047H1.111A1.106,1.106,0,0,0,0,15.737a1.118,1.118,0,0,0,1.111,1.127H27.665L19.618,24.9a1.139,1.139,0,0,0,0,1.587,1.112,1.112,0,0,0,1.587,0l9.952-9.952a1.093,1.093,0,0,0,0-1.571Z" transform="translate(385 494.326)"/>
    </g>
    <g id="Group_13-2" data-name="Group 13" transform="translate(51)">
      <text id="PREV" class="cls-1" transform="translate(252 515)"><tspan x="0" y="0">PREV</tspan></text>
      <path id="right-arrow-2" data-name="right-arrow" class="cls-2" d="M21.2,5.007a1.117,1.117,0,0,0-1.587,1.571l8.047,8.047H1.111A1.106,1.106,0,0,0,0,15.737a1.118,1.118,0,0,0,1.111,1.127H27.665L19.618,24.9a1.139,1.139,0,0,0,0,1.587,1.112,1.112,0,0,0,1.587,0l9.952-9.952a1.093,1.093,0,0,0,0-1.571Z" transform="translate(245.49 525.816) rotate(180)"/>
    </g>
  </g>
</svg>
