<svg xmlns="http://www.w3.org/2000/svg" viewBox="4349 2177.601 49.331 40.687">
  <defs>
    <style>
      .cls-1 {
        fill: #fff;
      }
    </style>
  </defs>
  <g id="Group_163" data-name="Group 163" transform="translate(279 -271.106)">
    <path id="Path_131" data-name="Path 131" class="cls-1" d="M47.152,44.856H2.178A2.18,2.18,0,0,0,0,47.034V83.365a2.18,2.18,0,0,0,2.178,2.178H47.152a2.18,2.18,0,0,0,2.178-2.178V47.034A2.18,2.18,0,0,0,47.152,44.856Zm0,38.509H2.178V47.034H47.152Z" transform="translate(4070 2403.851)"/>
    <path id="Path_132" data-name="Path 132" class="cls-1" d="M91.611,98.58h-36.8a1.089,1.089,0,0,0-1.089,1.089v24.068a1.089,1.089,0,0,0,1.089,1.089h36.8a1.089,1.089,0,0,0,1.089-1.089V99.669A1.089,1.089,0,0,0,91.611,98.58ZM55.9,100.758H90.522v18.435l-6.863-6.862a1.089,1.089,0,0,0-1.54,0l-4.184,4.184-9.592-9.592a1.089,1.089,0,0,0-1.54,0l-10.9,10.9V100.758Zm0,21.89V120.9l11.674-11.673L80.99,122.648Zm34.623,0H84.07l-4.594-4.594,3.414-3.414,7.382,7.381a1.086,1.086,0,0,0,.25.187v.439Z" transform="translate(4021.454 2355.303)"/>
    <path id="Path_133" data-name="Path 133" class="cls-1" d="M265.733,142.629a4.117,4.117,0,1,0,4.117,4.117A4.122,4.122,0,0,0,265.733,142.629Zm0,6.056a1.939,1.939,0,1,1,1.939-1.939A1.941,1.941,0,0,1,265.733,148.685Z" transform="translate(3833.59 2315.499)"/>
    <path id="Path_134" data-name="Path 134" class="cls-1" d="M64.283,396.458H54.811a1.089,1.089,0,0,0,0,2.178h9.472a1.089,1.089,0,1,0,0-2.178Z" transform="translate(4021.454 2086.125)"/>
    <path id="Path_135" data-name="Path 135" class="cls-1" d="M207.175,396.458h-2.484a1.089,1.089,0,0,0,0,2.178h2.484a1.089,1.089,0,1,0,0-2.178Z" transform="translate(3886.015 2086.125)"/>
  </g>
</svg>
