<svg xmlns="http://www.w3.org/2000/svg" viewBox="5289.962 4416.485 137.011 116.459">
  <defs>
    <style>
      .cls-1 {
        fill: #fff;
      }
    </style>
  </defs>
  <g id="Group_43" data-name="Group 43" transform="translate(1721.962 7.486)">
    <path id="briefcase" class="cls-1" d="M130.137,25.052h-4.544V18.2H102.758v6.851H93.624V11.821A7.329,7.329,0,0,0,86.3,4.5h-35.6a7.329,7.329,0,0,0-7.321,7.321V25.052H34.253V18.2H11.418v6.851H6.873A6.883,6.883,0,0,0,0,31.925v82.161a6.883,6.883,0,0,0,6.873,6.873H130.137a6.883,6.883,0,0,0,6.873-6.873V31.925A6.883,6.883,0,0,0,130.137,25.052Zm-22.812-2.284h13.7v2.284h-13.7ZM47.954,11.821a2.757,2.757,0,0,1,2.754-2.754H86.3a2.757,2.757,0,0,1,2.754,2.754V25.052h-41.1Zm-4.567,17.8h70.789v86.773H22.835V29.619H43.387Zm-27.4-6.851h13.7v2.284h-13.7ZM4.567,114.086V31.925a2.309,2.309,0,0,1,2.306-2.306H18.268v86.773H6.873A2.309,2.309,0,0,1,4.567,114.086Zm127.877,0a2.309,2.309,0,0,1-2.306,2.306H118.743V29.619h11.395a2.309,2.309,0,0,1,2.306,2.306Z" transform="translate(3568 4404.5)"/>
  </g>
</svg>
