<svg xmlns="http://www.w3.org/2000/svg" viewBox="4836 4407.236 110.007 116.764">
  <defs>
    <style>
      .cls-1 {
        fill: #fff;
      }
    </style>
  </defs>
  <g id="Group_38" data-name="Group 38" transform="translate(3837 330.236)">
    <path id="Path_65" data-name="Path 65" class="cls-1" d="M86.854,49.226V3.972A3.972,3.972,0,0,0,82.883,0H12.565A3.972,3.972,0,0,0,8.593,3.972V109.449a3.972,3.972,0,0,0,3.972,3.972h57.58A33.8,33.8,0,1,0,86.854,49.226ZM16.536,7.943H78.911V49.68a33.772,33.772,0,0,0-19.3,55.8H16.536ZM84.8,108.821A25.861,25.861,0,1,1,110.657,82.96,25.89,25.89,0,0,1,84.8,108.821Z" transform="translate(990.407 4077)"/>
    <path id="Path_66" data-name="Path 66" class="cls-1" d="M194.325,179.722a3.972,3.972,0,0,0-5.616,0L171.129,197.3a3.971,3.971,0,0,0,5.616,5.616l17.579-17.58A3.971,3.971,0,0,0,194.325,179.722Z" transform="translate(892.477 3968.64)"/>
    <path id="Path_67" data-name="Path 67" class="cls-1" d="M173.8,186.367a3.972,3.972,0,1,0-2.807-1.163A4.012,4.012,0,0,0,173.8,186.367Z" transform="translate(892.562 3968.722)"/>
    <path id="Path_68" data-name="Path 68" class="cls-1" d="M218.79,223.407a3.972,3.972,0,1,0,2.808,1.163A4,4,0,0,0,218.79,223.407Z" transform="translate(865.258 3941.424)"/>
    <path id="Path_69" data-name="Path 69" class="cls-1" d="M66.223,61.6H94.35a3.972,3.972,0,1,0,0-7.943H66.223a3.972,3.972,0,0,0,0,7.943Z" transform="translate(957.844 4044.438)"/>
    <path id="Path_70" data-name="Path 70" class="cls-1" d="M66.223,115.26H94.35a3.972,3.972,0,1,0,0-7.943H66.223a3.972,3.972,0,0,0,0,7.943Z" transform="translate(957.844 4011.874)"/>
    <path id="Path_71" data-name="Path 71" class="cls-1" d="M73.254,160.975H66.223a3.972,3.972,0,0,0,0,7.943h7.032a3.972,3.972,0,0,0,0-7.943Z" transform="translate(957.844 3979.311)"/>
  </g>
</svg>
