<svg xmlns="http://www.w3.org/2000/svg" viewBox="5004.553 1496.51 92.872 26.569">
  <defs>
    <style>
      .cls-1 {
        fill: #0544a8;
      }

      .cls-2 {
        fill: #fff;
      }
    </style>
  </defs>
  <g id="Group_23" data-name="Group 23" transform="translate(5538.491 1410.361) rotate(90)">
    <path id="Path_27" data-name="Path 27" class="cls-1" d="M26.45,13.284a14.948,14.948,0,0,1-.949,5.1,11.292,11.292,0,0,1-2.847,4.151,12.837,12.837,0,0,1-4.27,2.847,12.571,12.571,0,0,1-5.1.949,14.947,14.947,0,0,1-5.1-.949,11.743,11.743,0,0,1-4.27-2.847,12.837,12.837,0,0,1-2.847-4.27A14.42,14.42,0,0,1,0,13.284a14.948,14.948,0,0,1,.949-5.1A13.461,13.461,0,0,1,3.8,3.914a12.837,12.837,0,0,1,4.27-2.847A13.691,13.691,0,0,1,13.284,0a14.948,14.948,0,0,1,5.1.949A13.461,13.461,0,0,1,22.654,3.8,12.837,12.837,0,0,1,25.5,8.065,13.522,13.522,0,0,1,26.45,13.284Z" transform="translate(86.149 467.516) rotate(-90)"/>
    <path id="Path_28" data-name="Path 28" class="cls-2" d="M14.233,12.573a1.57,1.57,0,0,1-1.542,1.542H3.084a1.57,1.57,0,0,1-1.542-1.542v-6.4H3.914A3.652,3.652,0,0,0,3.558,7.71a4.27,4.27,0,1,0,8.54,0c0-.356-.119-.83-.119-1.186a.436.436,0,0,0-.119-.356h2.372v6.4Zm-8.54-6.4A2.7,2.7,0,0,1,7.947,4.982,2.867,2.867,0,0,1,10.2,6.168l.119.237a2.346,2.346,0,0,1,.237,1.3,2.684,2.684,0,0,1-2.728,2.728A2.684,2.684,0,0,1,5.1,7.71a2.391,2.391,0,0,1,.356-1.3ZM13.64,1.779H14V4.389H11.268V1.779ZM12.691,0H3.084A3.062,3.062,0,0,0,0,3.084v9.607a3.062,3.062,0,0,0,3.084,3.084h9.607a3.062,3.062,0,0,0,3.084-3.084V2.965A2.965,2.965,0,0,0,12.691,0Z" transform="translate(91.605 462.179) rotate(-90)"/>
    <circle id="Ellipse_10" data-name="Ellipse 10" class="cls-1" cx="13.284" cy="13.284" r="13.284" transform="translate(86.149 533.938) rotate(-90)"/>
    <path id="Path_29" data-name="Path 29" class="cls-2" d="M4.744,4.649v-1.3a1.069,1.069,0,0,1,.119-.593.9.9,0,0,1,.474-.237H7.117V.023H4.744a2.814,2.814,0,0,0-2.372.83,3.526,3.526,0,0,0-.949,2.372V4.649H0V7.732H1.542v7.947H4.626V7.732H7l.119-1.186.119-1.9Z" transform="translate(91.582 524.33) rotate(-90)"/>
    <circle id="Ellipse_11" data-name="Ellipse 11" class="cls-1" cx="13.284" cy="13.284" r="13.284" transform="translate(86.149 500.727) rotate(-90)"/>
    <path id="Path_30" data-name="Path 30" class="cls-2" d="M15.538,1.542a4.973,4.973,0,0,1-1.9.474A3.03,3.03,0,0,0,15.063.237a5.84,5.84,0,0,1-2.016.712,3.314,3.314,0,0,0-4.863.237,3.262,3.262,0,0,0-.593,2.728A9.062,9.062,0,0,1,.949.593,3.865,3.865,0,0,0,.474,2.135,3.259,3.259,0,0,0,1.9,4.744,2.817,2.817,0,0,1,.474,4.389,4.214,4.214,0,0,0,.712,5.575,3.16,3.16,0,0,0,3.084,7.591a2.018,2.018,0,0,1-.83.119H1.661A3.171,3.171,0,0,0,4.626,9.845a6.739,6.739,0,0,1-3.914,1.3H0a9.046,9.046,0,0,0,4.982,1.423,8.906,8.906,0,0,0,8.777-7.117,5.135,5.135,0,0,0,.119-1.9V3.2a10.99,10.99,0,0,0,1.661-1.661Z" transform="translate(93.858 495.152) rotate(-90)"/>
  </g>
</svg>
