<svg xmlns="http://www.w3.org/2000/svg" viewBox="5774 4416.236 116.721 116.708">
  <defs>
    <style>
      .cls-1 {
        fill: #fff;
      }
    </style>
  </defs>
  <g id="Group_42" data-name="Group 42" transform="translate(2255 529.236)">
    <path id="Path_80" data-name="Path 80" class="cls-1" d="M113.3,48.117h-18l11.477-6.626a3.42,3.42,0,0,0,1.242-4.688L87.507,1.721A3.42,3.42,0,0,0,82.863.476L23.634,34.216A3.42,3.42,0,0,0,22.365,38.9l5.323,9.22H3.42A3.42,3.42,0,0,0,0,51.536v61.78a3.42,3.42,0,0,0,3.42,3.42H113.3a3.42,3.42,0,0,0,3.42-3.42V51.536A3.42,3.42,0,0,0,113.3,48.117ZM83.31,8.092l17.075,29.195L57.935,61.795H43.482L30.008,38.456Zm26.572,101.8H6.839V82.312H109.882Zm0-34.424H6.839V54.956h24.8l3.948,6.839H24.165a3.42,3.42,0,1,0,0,6.839H92.556a3.42,3.42,0,1,0,0-6.839H71.614l11.846-6.839h26.422Z" transform="translate(3519 3886.973)"/>
    <path id="Path_81" data-name="Path 81" class="cls-1" d="M259.18,91.144a3.419,3.419,0,0,0-4.326,2.163l-5.089,15.268-2.927-2.927A3.42,3.42,0,0,0,242,110.485l6.839,6.839a3.421,3.421,0,0,0,5.662-1.337l6.839-20.517A3.42,3.42,0,0,0,259.18,91.144Z" transform="translate(3332.941 3816.764)"/>
  </g>
</svg>
