<svg xmlns="http://www.w3.org/2000/svg" viewBox="4336.242 4379.61 144.77 144.77">
  <defs>
    <style>
      .cls-1 {
        fill: #fff;
      }
    </style>
  </defs>
  <g id="Group_33" data-name="Group 33" transform="translate(4336.242 4379.61)">
    <path id="Path_33" data-name="Path 33" class="cls-1" d="M142.356,236.344H2.413A2.414,2.414,0,0,1,0,233.932v-9.652a2.414,2.414,0,0,1,2.413-2.412H142.356a2.414,2.414,0,0,1,2.413,2.412v9.652A2.414,2.414,0,0,1,142.356,236.344ZM4.826,231.518H139.944v-4.826H4.826Zm0,0" transform="translate(0 -159.133)"/>
    <path id="Path_34" data-name="Path 34" class="cls-1" d="M190.557,14.477H113.346a2.413,2.413,0,0,1-2.412-2.412V2.413A2.414,2.414,0,0,1,113.346,0h77.212a2.414,2.414,0,0,1,2.412,2.413v9.651A2.413,2.413,0,0,1,190.557,14.477Zm-74.8-4.826h72.385V4.826H115.759Zm0,0" transform="translate(-79.567)"/>
    <path id="Path_36" data-name="Path 36" class="cls-1" d="M405.538,99.81H369.346a2.414,2.414,0,0,1-2.412-2.413V87.745a2.414,2.414,0,0,1,2.412-2.413h36.193a2.414,2.414,0,0,1,2.413,2.413V97.4A2.414,2.414,0,0,1,405.538,99.81Zm-33.779-4.827h31.367V90.158H371.759Zm0,0" transform="translate(-263.182 -61.204)"/>
    <path id="Path_37" data-name="Path 37" class="cls-1" d="M220.217,358.988h-38.6a2.414,2.414,0,0,1-2.413-2.413V301.08a2.413,2.413,0,0,1,2.413-2.412h38.6a2.413,2.413,0,0,1,2.413,2.412v55.495A2.414,2.414,0,0,1,220.217,358.988Zm-36.192-4.826h33.78V303.494h-33.78Zm0,0" transform="translate(-128.53 -214.219)"/>
    <path id="Path_40" data-name="Path 40" class="cls-1" d="M305.906,337.626H301.08a2.413,2.413,0,0,1,0-4.826h4.826a2.413,2.413,0,1,1,0,4.826Zm0,0" transform="translate(-214.219 -238.7)"/>
    <path id="Path_41" data-name="Path 41" class="cls-1" d="M305.906,465.626H301.08a2.413,2.413,0,0,1,0-4.826h4.826a2.413,2.413,0,1,1,0,4.826Zm0,0" transform="translate(-214.219 -330.508)"/>
    <path id="Path_44" data-name="Path 44" class="cls-1" d="M284.014,402.186a2.413,2.413,0,0,1-2.412-2.413v-4.826a2.413,2.413,0,0,1,4.826,0v4.826A2.414,2.414,0,0,1,284.014,402.186Zm0,0" transform="translate(-201.978 -281.544)"/>
    <path id="Path_48" data-name="Path 48" class="cls-1" d="M384.94,332.447H360.812a2.414,2.414,0,0,1-2.413-2.412V301.08a2.413,2.413,0,0,1,2.413-2.412H384.94a2.413,2.413,0,0,1,2.413,2.412v28.955A2.414,2.414,0,0,1,384.94,332.447Zm-21.716-4.826h19.3V303.494h-19.3Zm0,0" transform="translate(-257.06 -214.219)"/>
    <path id="Path_49" data-name="Path 49" class="cls-1" d="M384.94,337.626H360.812a2.413,2.413,0,1,1,0-4.826H384.94a2.413,2.413,0,1,1,0,4.826Zm0,0" transform="translate(-257.06 -238.7)"/>
    <path id="Path_50" data-name="Path 50" class="cls-1" d="M403.48,344.864a2.413,2.413,0,0,1-2.413-2.412v-7.239a2.413,2.413,0,0,1,4.826,0v7.239A2.413,2.413,0,0,1,403.48,344.864Zm0,0" transform="translate(-287.664 -238.7)"/>
    <path id="Path_51" data-name="Path 51" class="cls-1" d="M217.981,110.58H208.33a2.413,2.413,0,0,1-2.413-2.412v-7.239h-7.238a2.414,2.414,0,0,1-2.413-2.412V88.864a2.414,2.414,0,0,1,2.413-2.412h7.238V79.213A2.413,2.413,0,0,1,208.33,76.8h9.651a2.413,2.413,0,0,1,2.413,2.412v7.239h7.238a2.414,2.414,0,0,1,2.413,2.412v9.652a2.414,2.414,0,0,1-2.413,2.412h-7.238v7.239A2.413,2.413,0,0,1,217.981,110.58Zm-7.239-4.826h4.827V98.516a2.413,2.413,0,0,1,2.412-2.413h7.239V91.278h-7.239a2.413,2.413,0,0,1-2.412-2.413V81.626h-4.827v7.238a2.413,2.413,0,0,1-2.412,2.413h-7.239V96.1h7.239a2.413,2.413,0,0,1,2.412,2.413Zm0,0" transform="translate(-140.771 -55.085)"/>
    <path id="Path_52" data-name="Path 52" class="cls-1" d="M149.772,328.385H19.48a2.414,2.414,0,0,1-2.413-2.413V258.413A2.414,2.414,0,0,1,19.48,256H149.772a2.414,2.414,0,0,1,2.413,2.413v67.558A2.414,2.414,0,0,1,149.772,328.385Zm-127.88-4.826H147.359V260.826H21.892Zm0,0" transform="translate(-12.241 -183.615)"/>
    <path id="Path_53" data-name="Path 53" class="cls-1" d="M197.972,92.041H130.413A2.414,2.414,0,0,1,128,89.628V36.546a2.414,2.414,0,0,1,2.413-2.413h67.558a2.414,2.414,0,0,1,2.413,2.413V89.628A2.414,2.414,0,0,1,197.972,92.041Zm-65.146-4.826h62.734V38.958H132.826Zm0,0" transform="translate(-91.808 -24.481)"/>
    <path id="Path_55" data-name="Path 55" class="cls-1" d="M398.3,153.245H369.346a2.414,2.414,0,0,1-2.412-2.413V121.878a2.414,2.414,0,0,1,2.412-2.413H398.3a2.413,2.413,0,0,1,2.412,2.413v28.954A2.413,2.413,0,0,1,398.3,153.245Zm-26.541-4.826h24.128V124.292H371.759Zm0,0" transform="translate(-263.182 -85.686)"/>
    <path id="Path_58" data-name="Path 58" class="cls-1" d="M413.131,158.427H403.48a2.413,2.413,0,1,1,0-4.826h9.651a2.413,2.413,0,0,1,0,4.826Zm0,0" transform="translate(-287.664 -110.17)"/>
    <path id="Path_59" data-name="Path 59" class="cls-1" d="M413.131,192.56H403.48a2.413,2.413,0,1,1,0-4.826h9.651a2.413,2.413,0,0,1,0,4.826Zm0,0" transform="translate(-287.664 -134.652)"/>
    <path id="Path_35" data-name="Path 35" class="cls-1" d="M38.606,99.81H2.413A2.414,2.414,0,0,1,0,97.4V87.745a2.414,2.414,0,0,1,2.413-2.413H38.606a2.414,2.414,0,0,1,2.412,2.413V97.4A2.414,2.414,0,0,1,38.606,99.81ZM4.826,94.983H36.192V90.158H4.826Zm0,0" transform="translate(0 -61.204)"/>
    <path id="Path_38" data-name="Path 38" class="cls-1" d="M186.438,337.626h-4.826a2.413,2.413,0,1,1,0-4.826h4.826a2.413,2.413,0,0,1,0,4.826Zm0,0" transform="translate(-128.53 -238.7)"/>
    <path id="Path_39" data-name="Path 39" class="cls-1" d="M186.438,465.626h-4.826a2.413,2.413,0,1,1,0-4.826h4.826a2.413,2.413,0,0,1,0,4.826Zm0,0" transform="translate(-128.53 -330.508)"/>
    <path id="Path_42" data-name="Path 42" class="cls-1" d="M249.878,358.988a2.414,2.414,0,0,1-2.413-2.413V301.08a2.413,2.413,0,0,1,4.827,0v55.495A2.414,2.414,0,0,1,249.878,358.988Zm0,0" transform="translate(-177.493 -214.219)"/>
    <path id="Path_43" data-name="Path 43" class="cls-1" d="M215.745,402.186a2.414,2.414,0,0,1-2.413-2.413v-4.826a2.413,2.413,0,0,1,4.826,0v4.826A2.414,2.414,0,0,1,215.745,402.186Zm0,0" transform="translate(-153.012 -281.544)"/>
    <path id="Path_45" data-name="Path 45" class="cls-1" d="M77.74,332.447H53.613a2.414,2.414,0,0,1-2.413-2.412V301.08a2.413,2.413,0,0,1,2.413-2.412H77.74a2.413,2.413,0,0,1,2.413,2.412v28.955A2.414,2.414,0,0,1,77.74,332.447Zm-21.716-4.826h19.3V303.494h-19.3Zm0,0" transform="translate(-36.722 -214.219)"/>
    <path id="Path_46" data-name="Path 46" class="cls-1" d="M77.74,337.626H53.613a2.413,2.413,0,1,1,0-4.826H77.74a2.413,2.413,0,1,1,0,4.826Zm0,0" transform="translate(-36.722 -238.7)"/>
    <path id="Path_47" data-name="Path 47" class="cls-1" d="M96.279,344.864a2.413,2.413,0,0,1-2.412-2.412v-7.239a2.413,2.413,0,0,1,4.826,0v7.239A2.413,2.413,0,0,1,96.279,344.864Zm0,0" transform="translate(-67.326 -238.7)"/>
    <path id="Path_54" data-name="Path 54" class="cls-1" d="M56.968,153.245H28.014a2.413,2.413,0,0,1-2.412-2.413V121.878a2.413,2.413,0,0,1,2.412-2.413H56.968a2.414,2.414,0,0,1,2.412,2.413v28.954A2.414,2.414,0,0,1,56.968,153.245Zm-26.541-4.826H54.555V124.292H30.427Zm0,0" transform="translate(-18.363 -85.686)"/>
    <path id="Path_56" data-name="Path 56" class="cls-1" d="M71.8,158.427H62.147a2.413,2.413,0,0,1,0-4.826H71.8a2.413,2.413,0,1,1,0,4.826Zm0,0" transform="translate(-42.844 -110.17)"/>
    <path id="Path_57" data-name="Path 57" class="cls-1" d="M71.8,192.56H62.147a2.413,2.413,0,0,1,0-4.826H71.8a2.413,2.413,0,1,1,0,4.826Zm0,0" transform="translate(-42.844 -134.652)"/>
  </g>
</svg>
