<svg xmlns="http://www.w3.org/2000/svg" viewBox="4250.148 788.346 33.852 118.328">
  <defs>
    <style>
      .cls-1 {
        fill: #0544a8;
      }

      .cls-2 {
        fill: #fff;
      }
    </style>
  </defs>
  <g id="Group_21" data-name="Group 21" transform="translate(4164 347.279)">
    <path id="Path_27" data-name="Path 27" class="cls-1" d="M33.7,16.926a19.045,19.045,0,0,1-1.209,6.5,14.387,14.387,0,0,1-3.627,5.289,16.355,16.355,0,0,1-5.44,3.627,16.017,16.017,0,0,1-6.5,1.209,19.045,19.045,0,0,1-6.5-1.209,14.962,14.962,0,0,1-5.44-3.627,16.355,16.355,0,0,1-3.627-5.44A18.373,18.373,0,0,1,0,16.926a19.045,19.045,0,0,1,1.209-6.5,17.151,17.151,0,0,1,3.627-5.44,16.355,16.355,0,0,1,5.44-3.627A17.444,17.444,0,0,1,16.926,0a19.045,19.045,0,0,1,6.5,1.209,17.151,17.151,0,0,1,5.44,3.627,16.355,16.355,0,0,1,3.627,5.44A17.229,17.229,0,0,1,33.7,16.926Z" transform="translate(86.149 474.767) rotate(-90)"/>
    <path id="Path_28" data-name="Path 28" class="cls-2" d="M18.135,16.019a2,2,0,0,1-1.965,1.965H3.929a2,2,0,0,1-1.965-1.965V7.858H4.987a4.653,4.653,0,0,0-.453,1.965,5.44,5.44,0,1,0,10.881,0c0-.453-.151-1.058-.151-1.511a.555.555,0,0,0-.151-.453h3.022v8.161ZM7.254,7.858a3.439,3.439,0,0,1,2.871-1.511A3.653,3.653,0,0,1,13,7.858l.151.3a2.989,2.989,0,0,1,.3,1.662A3.42,3.42,0,0,1,9.974,13.3,3.42,3.42,0,0,1,6.5,9.823a3.046,3.046,0,0,1,.453-1.662ZM17.379,2.267h.453V5.592H14.357V2.267ZM16.17,0H3.929A3.9,3.9,0,0,0,0,3.929V16.17A3.9,3.9,0,0,0,3.929,20.1H16.17A3.9,3.9,0,0,0,20.1,16.17V3.778A3.778,3.778,0,0,0,16.17,0Z" transform="translate(93.1 467.966) rotate(-90)"/>
    <circle id="Ellipse_10" data-name="Ellipse 10" class="cls-1" cx="16.926" cy="16.926" r="16.926" transform="translate(86.149 559.395) rotate(-90)"/>
    <path id="Path_29" data-name="Path 29" class="cls-2" d="M6.045,5.923V4.26A1.362,1.362,0,0,1,6.2,3.5a1.146,1.146,0,0,1,.6-.3H9.067V.029H6.045A3.585,3.585,0,0,0,3.022,1.087,4.493,4.493,0,0,0,1.813,4.109V5.923H0V9.852H1.965V19.977H5.894V9.852H8.916l.151-1.511.151-2.418Z" transform="translate(93.071 547.154) rotate(-90)"/>
    <circle id="Ellipse_11" data-name="Ellipse 11" class="cls-1" cx="16.926" cy="16.926" r="16.926" transform="translate(86.149 517.081) rotate(-90)"/>
    <path id="Path_30" data-name="Path 30" class="cls-2" d="M19.8,1.965a6.336,6.336,0,0,1-2.418.6A3.861,3.861,0,0,0,19.192.3a7.44,7.44,0,0,1-2.569.907,4.223,4.223,0,0,0-6.2.3,4.156,4.156,0,0,0-.756,3.476A11.546,11.546,0,0,1,1.209.756,4.924,4.924,0,0,0,.6,2.72,4.153,4.153,0,0,0,2.418,6.045,3.59,3.59,0,0,1,.6,5.592,5.369,5.369,0,0,0,.907,7.1,4.026,4.026,0,0,0,3.929,9.672a2.572,2.572,0,0,1-1.058.151H2.116a4.04,4.04,0,0,0,3.778,2.72A8.586,8.586,0,0,1,.907,14.205H0a11.526,11.526,0,0,0,6.347,1.813A11.347,11.347,0,0,0,17.53,6.952a6.542,6.542,0,0,0,.151-2.418V4.08A14,14,0,0,0,19.8,1.965Z" transform="translate(95.972 509.978) rotate(-90)"/>
  </g>
</svg>
