<svg xmlns="http://www.w3.org/2000/svg" viewBox="4597 3850 100.037 100">
  <defs>
    <style>
      .cls-1 {
        fill: #0544a8;
      }
    </style>
  </defs>
  <g id="Group_156" data-name="Group 156" transform="translate(4223.148 119.557)">
    <path id="Path_82" data-name="Path 82" class="cls-1" d="M188.622,155.15a1.268,1.268,0,0,0-.062-.15,1.757,1.757,0,0,0-.1-.245,1.68,1.68,0,0,0-.115-.153,1.588,1.588,0,0,0-.145-.188,23.607,23.607,0,0,1-.322-.258l-16.673-10a1.668,1.668,0,0,0-1.717,0l-16.673,10a1.468,1.468,0,0,0-.175.135,1.9,1.9,0,0,0-.157.123,1.755,1.755,0,0,0-.143.187,1.479,1.479,0,0,0-.117.155,1.755,1.755,0,0,0-.1.238,1.674,1.674,0,0,0-.063.158,1.608,1.608,0,0,0-.058.432v16.673a1.667,1.667,0,0,0,.809,1.429l16.673,10,.018.008.018.013a1.613,1.613,0,0,0,.273.112c.038.013.075.035.115.047a1.641,1.641,0,0,0,.867,0c.04-.012.077-.033.115-.047a1.614,1.614,0,0,0,.273-.112l.018-.013.018-.008,16.673-10a1.667,1.667,0,0,0,.809-1.429V155.583A1.63,1.63,0,0,0,188.622,155.15Zm-18.282-7.626,5.1,3.058L162,158.641l-5.1-3.058Zm-1.667,31.79-13.338-8V158.528l13.338,8Zm1.667-15.671-5.1-3.058,13.432-8.06,5.1,3.058Zm15.006,7.67-13.338,8V166.531l13.338-8Z" transform="translate(253.53 3616.505)"/>
    <path id="Path_83" data-name="Path 83" class="cls-1" d="M217.27.719a1.727,1.727,0,0,0-2.668,0l-5,6.669,2.668,2,2-2.668V20.059H217.6V6.721l2,2.668,2.668-2Z" transform="translate(207.935 3730.354)"/>
    <path id="Path_84" data-name="Path 84" class="cls-1" d="M219.6,394.582l-2,2.668V383.911h-3.335v13.338l-2-2.668-2.668,2,5,6.669a1.667,1.667,0,0,0,2.668,0l5-6.669Z" transform="translate(207.935 3426.525)"/>
    <rect id="Rectangle_63" data-name="Rectangle 63" class="cls-1" width="3.335" height="3.335" transform="translate(422.203 3753.748)"/>
    <rect id="Rectangle_64" data-name="Rectangle 64" class="cls-1" width="3.335" height="3.335" transform="translate(422.203 3803.767)"/>
    <path id="Path_85" data-name="Path 85" class="cls-1" d="M20.007,214.179H6.669l2.668-2-2-2.668-6.669,5a1.667,1.667,0,0,0,0,2.668l6.669,5,2-2.668-2.668-2H20.007Z" transform="translate(373.853 3564.578)"/>
    <path id="Path_86" data-name="Path 86" class="cls-1" d="M403.674,214.846a1.674,1.674,0,0,0-.333-.333l-6.669-5-2,2.668,2.668,2H384v3.335h13.338l-2.668,2,2,2.668,6.669-5A1.667,1.667,0,0,0,403.674,214.846Z" transform="translate(69.882 3564.578)"/>
    <rect id="Rectangle_65" data-name="Rectangle 65" class="cls-1" width="3.335" height="3.335" transform="translate(397.194 3778.757)"/>
    <rect id="Rectangle_66" data-name="Rectangle 66" class="cls-1" width="3.335" height="3.335" transform="translate(447.213 3778.757)"/>
    <path id="Path_87" data-name="Path 87" class="cls-1" d="M83.735,81.288l-9.43-9.43,3.3.47.472-3.3-8.251-1.185a1.667,1.667,0,0,0-1.894,1.894l1.179,8.251,3.3-.472-.47-3.3,9.43,9.43Z" transform="translate(320.093 3676.737)"/>
    <path id="Path_88" data-name="Path 88" class="cls-1" d="M351.969,350l-1.179-8.251-3.3.475.47,3.3-9.43-9.43-2.358,2.358,9.43,9.43-3.3-.474-.472,3.3,8.251,1.179a1.629,1.629,0,0,0,.237.017,1.667,1.667,0,0,0,1.668-1.667A1.644,1.644,0,0,0,351.969,350Z" transform="translate(107.745 3464.375)"/>
    <rect id="Rectangle_67" data-name="Rectangle 67" class="cls-1" width="3.335" height="3.335" transform="translate(403.829 3762.741) rotate(-45)"/>
    <rect id="Rectangle_68" data-name="Rectangle 68" class="cls-1" width="3.335" height="3.335" transform="translate(439.198 3798.108) rotate(-45)"/>
    <path id="Path_89" data-name="Path 89" class="cls-1" d="M74.3,347.867l9.43-9.43-2.351-2.358-9.43,9.43.47-3.3-3.3-.472-1.185,8.251a1.667,1.667,0,0,0,1.651,1.9,1.643,1.643,0,0,0,.237-.017l8.251-1.179-.472-3.3Z" transform="translate(320.089 3464.388)"/>
    <path id="Path_90" data-name="Path 90" class="cls-1" d="M351.494,68.347a1.651,1.651,0,0,0-1.415-.472l-8.251,1.179.472,3.3,3.3-.47-9.43,9.43,2.358,2.358,9.43-9.43-.47,3.3,3.3.475,1.179-8.251A1.666,1.666,0,0,0,351.494,68.347Z" transform="translate(107.745 3676.71)"/>
    <rect id="Rectangle_69" data-name="Rectangle 69" class="cls-1" width="3.335" height="3.335" transform="translate(403.83 3798.11) rotate(-45)"/>
    <rect id="Rectangle_70" data-name="Rectangle 70" class="cls-1" width="3.335" height="3.335" transform="translate(439.198 3762.735) rotate(-45)"/>
  </g>
</svg>
