<svg xmlns="http://www.w3.org/2000/svg" viewBox="4865 3850 105.264 100">
  <defs>
    <style>
      .cls-1 {
        fill: #0544a8;
      }
    </style>
  </defs>
  <g id="Group_160" data-name="Group 160" transform="translate(4116 111.998)">
    <rect id="Rectangle_71" data-name="Rectangle 71" class="cls-1" width="3.509" height="3.509" transform="translate(763.036 3806.423)"/>
    <rect id="Rectangle_72" data-name="Rectangle 72" class="cls-1" width="3.509" height="3.509" transform="translate(787.598 3806.423)"/>
    <rect id="Rectangle_73" data-name="Rectangle 73" class="cls-1" width="3.509" height="3.509" transform="translate(812.159 3806.423)"/>
    <rect id="Rectangle_74" data-name="Rectangle 74" class="cls-1" width="3.509" height="3.509" transform="translate(836.72 3806.423)"/>
    <path id="Path_94" data-name="Path 94" class="cls-1" d="M105.264,73.406v-29.3A9.268,9.268,0,0,0,97.129,34.9a12.18,12.18,0,0,0,4.626-8.858h1.754V22.529h-2c-.832-5.789-3.753-8.563-7.1-9.744A1.719,1.719,0,0,0,92.983,12H85.966a1.719,1.719,0,0,0-1.421.782c-3.351,1.181-6.272,3.954-7.1,9.744h-2v3.509h1.754A12.18,12.18,0,0,0,81.82,34.9,9.265,9.265,0,0,0,73.7,43.582H66.667a5.263,5.263,0,1,0,0,10.526H78.948V71.652H73.685V59.371a1.754,1.754,0,0,0-1.754-1.754H57.9a1.754,1.754,0,0,0-1.754,1.754V71.652H49.123V59.371a1.754,1.754,0,0,0-1.754-1.754H33.334a1.754,1.754,0,0,0-1.754,1.754V71.652H29.825V54.108H38.6a5.263,5.263,0,0,0,0-10.526H31.564A9.265,9.265,0,0,0,23.445,34.9a12.18,12.18,0,0,0,4.626-8.858h1.754V22.529h-2c-.832-5.789-3.753-8.563-7.1-9.744A1.719,1.719,0,0,0,19.3,12H12.281a1.719,1.719,0,0,0-1.421.782c-3.351,1.181-6.272,3.954-7.1,9.744h-2v3.509H3.51A12.18,12.18,0,0,0,8.136,34.9,9.268,9.268,0,0,0,0,44.108v29.3H3.51v-29.3a5.76,5.76,0,0,1,5.263-5.756v5.23a1.754,1.754,0,0,0,1.754,1.754H21.053a1.754,1.754,0,0,0,1.754-1.754V38.357a5.76,5.76,0,0,1,5.263,5.751v1.228a1.754,1.754,0,0,0,1.754,1.754H38.6a1.754,1.754,0,0,1,0,3.509H28.071a1.754,1.754,0,0,0-1.754,1.754v19.3H24.562V59.371a1.754,1.754,0,0,0-1.754-1.754H8.773a1.754,1.754,0,0,0-1.754,1.754V72.266A10.512,10.512,0,0,0,8.773,92.547v10.684H7.018a1.754,1.754,0,0,0-1.46.781L2.05,109.275A1.754,1.754,0,0,0,3.51,112H17.545A1.754,1.754,0,0,0,19,109.275L15.5,104.012a1.754,1.754,0,0,0-1.46-.781H12.281V92.7H26.317v15.789H22.808V112h5.263a1.754,1.754,0,0,0,1.754-1.754V92.7H78.948v17.544A1.754,1.754,0,0,0,80.7,112h3.509v-3.509H82.457V92.7H92.983v10.526H91.229a1.754,1.754,0,0,0-1.46.781l-3.509,5.263A1.754,1.754,0,0,0,87.72,112h14.035a1.754,1.754,0,0,0,1.46-2.728l-3.509-5.263a1.754,1.754,0,0,0-1.46-.781H96.492V92.547a10.526,10.526,0,0,0-1.754-20.895H82.457v-19.3A1.754,1.754,0,0,0,80.7,50.6H66.667a1.754,1.754,0,1,1,0-3.509h8.772a1.754,1.754,0,0,0,1.754-1.754V44.108a5.76,5.76,0,0,1,5.263-5.756v5.23a1.754,1.754,0,0,0,1.754,1.754H94.737a1.754,1.754,0,0,0,1.754-1.754V38.357a5.76,5.76,0,0,1,5.263,5.751v29.3ZM10.527,16.873v2.147h3.509V15.643a13.119,13.119,0,0,1,1.754-.132,13.119,13.119,0,0,1,1.754.132v3.377h3.509V16.873a8.107,8.107,0,0,1,3.195,5.656H7.332A8.107,8.107,0,0,1,10.527,16.873ZM19.3,41.827H12.281V38.319H19.3ZM15.79,34.81c-2.888,0-8.772-4.06-8.772-8.772H24.562C24.562,30.75,18.678,34.81,15.79,34.81ZM59.65,61.126h3.509v5.263h3.509V61.126h3.509V71.652H59.65Zm-24.561,0H38.6v5.263h3.509V61.126h3.509V71.652H35.088Zm-24.561,0h3.509v5.263h3.509V61.126h3.509V71.652H10.527V61.126ZM3.51,82.178a7.018,7.018,0,0,1,7.018-7.018h.054a8.691,8.691,0,0,0,0,14.035h-.054A7.018,7.018,0,0,1,3.51,82.178ZM13.1,106.74l1.17,1.754H6.787l1.17-1.754Zm2.693-19.3a5.263,5.263,0,1,1,5.263-5.263A5.263,5.263,0,0,1,15.79,87.441ZM21,89.2a8.692,8.692,0,0,0,0-14.035H35.143a8.691,8.691,0,0,0,0,14.035Zm19.353-1.754a5.263,5.263,0,1,1,5.263-5.263A5.263,5.263,0,0,1,40.352,87.441ZM45.56,89.2a8.692,8.692,0,0,0,0-14.035H59.7a8.691,8.691,0,0,0,0,14.035Zm19.353-1.754a5.263,5.263,0,1,1,5.263-5.263A5.263,5.263,0,0,1,64.913,87.441Zm32.395,19.3,1.17,1.754H91l1.17-1.754Zm-2.57-31.579a7.018,7.018,0,0,1,0,14.035h-.054a8.691,8.691,0,0,0,0-14.035Zm-5.263,1.754a5.263,5.263,0,1,1-5.263,5.263A5.263,5.263,0,0,1,89.474,76.915Zm-5.209-1.754a8.692,8.692,0,0,0,0,14.035H70.122a8.691,8.691,0,0,0,0-14.035Zm-.054-58.288v2.147H87.72V15.643a11.762,11.762,0,0,1,3.509,0v3.377h3.509V16.873a8.107,8.107,0,0,1,3.195,5.656H81.016A8.108,8.108,0,0,1,84.211,16.873Zm8.772,24.954H85.966V38.319h7.018ZM89.474,34.81c-2.888,0-8.772-4.06-8.772-8.772H98.246C98.246,30.75,92.362,34.81,89.474,34.81Z" transform="translate(749 3725.999)"/>
  </g>
</svg>
