<svg xmlns="http://www.w3.org/2000/svg" viewBox="5856.111 4689.397 88.45 71.571">
  <defs>
    <style>
      .cls-1 {
        fill: #fff;
      }
    </style>
  </defs>
  <path id="Path_146" data-name="Path 146" class="cls-1" d="M88.45,8.778c-3.376,1.35-6.752,2.7-10.8,2.7C81.7,9.453,84.4,5.4,85.75,1.35A33.243,33.243,0,0,1,74.271,5.4a18.867,18.867,0,0,0-27.683,1.35c-3.376,4.726-4.726,10.128-3.376,15.529A51.584,51.584,0,0,1,5.4,3.376c-1.35,2.7-2.7,6.077-2.7,8.778a18.555,18.555,0,0,0,8.1,14.854,16.039,16.039,0,0,1-8.1-2.026,23.99,23.99,0,0,0,1.35,6.752c2.026,6.077,7.427,10.128,13.5,11.478a11.49,11.49,0,0,1-4.726.675H9.453a18.052,18.052,0,0,0,16.88,12.153A38.362,38.362,0,0,1,4.051,63.468H0c8.1,5.4,18.23,8.1,28.358,8.1A50.7,50.7,0,0,0,78.323,31.059c.675-3.376,1.35-7.427.675-10.8V18.23A62.563,62.563,0,0,0,88.45,8.778Z" transform="translate(5856.111 4689.397)"/>
</svg>
