<svg xmlns="http://www.w3.org/2000/svg" viewBox="4314 3571 100 100">
  <defs>
    <style>
      .cls-1 {
        fill: #0544a8;
      }
    </style>
  </defs>
  <g id="Group_154" data-name="Group 154" transform="translate(4195 14)">
    <path id="Path_111" data-name="Path 111" class="cls-1" d="M79.673,36.936l-3.12-1.7a3.342,3.342,0,0,0-3.037-.083l-7.132,3.41-8.663-5.125a1.658,1.658,0,0,0-1.227-.188L49.828,34.8a1.666,1.666,0,0,0-.807,2.8l6.228,6.285-4.725,2.26-8.27-3.087a1.667,1.667,0,0,0-2.073,2.307l5,10a1.668,1.668,0,0,0,1.492.922h5a1.672,1.672,0,0,0,.813-.212l6.237-3.49-.38,5.247a1.669,1.669,0,0,0,2.408,1.613l6.667-3.333a1.67,1.67,0,0,0,.863-1.053l2.073-7.613,9.213-4.6a3.333,3.333,0,0,0,.107-5.908ZM53.49,37.37l3.112-.727,6.165,3.645-4.328,2.07ZM68.195,44.8a1.665,1.665,0,0,0-.863,1.053l-2.073,7.613-3.382,1.692.392-5.413a1.666,1.666,0,0,0-.768-1.527,1.647,1.647,0,0,0-.893-.263,1.664,1.664,0,0,0-.813.212l-8.557,4.788H47.7L45.055,47.66l4.97,1.853a1.674,1.674,0,0,0,1.3-.057L58.8,45.881h0l8.217-3.928a0,0,0,0,0,0,0l7.93-3.792,3.122,1.7Z" transform="translate(87.328 3530.716)"/>
    <path id="Path_112" data-name="Path 112" class="cls-1" d="M75.763,263.735c-.012-.015-.012-.035-.023-.048-.028-.035-.06-.065-.088-.1a20.127,20.127,0,0,0-1.375-1.567c-.025-.025-.047-.053-.07-.078a20.255,20.255,0,0,0-1.585-1.438c-.19-.155-.392-.292-.587-.438-.352-.267-.7-.532-1.075-.775-.277-.183-.563-.348-.85-.517-.31-.183-.622-.362-.942-.528s-.622-.31-.938-.453-.652-.283-.985-.413c-.317-.123-.633-.243-.955-.35-.365-.122-.738-.225-1.113-.325-.3-.08-.6-.167-.907-.233-.442-.1-.893-.165-1.347-.232-.252-.037-.5-.088-.753-.115a19.139,19.139,0,0,0-4.338,0c-.253.027-.5.078-.753.115-.453.067-.9.135-1.347.232-.307.067-.6.153-.907.233-.375.1-.747.2-1.113.325-.323.107-.64.227-.955.35-.333.13-.662.267-.985.413s-.63.293-.938.453-.632.345-.942.528c-.285.168-.572.333-.85.517-.37.243-.723.508-1.075.775-.195.148-.4.283-.587.438a20.553,20.553,0,0,0-1.585,1.438c-.025.025-.047.053-.07.078a20.125,20.125,0,0,0-1.375,1.567c-.028.035-.06.065-.088.1-.012.015-.013.033-.023.048a19.9,19.9,0,0,0,.222,24.83c.01.013.012.032.022.045s.043.045.063.07a19.828,19.828,0,0,0,1.357,1.492c.23.23.478.435.717.652.268.242.532.487.812.715s.587.447.885.662c.257.185.512.37.777.543.313.2.632.395.955.58q.415.24.842.46c.322.165.645.323.973.47s.637.268.96.393.627.243.948.348c.37.122.747.222,1.125.322.292.077.578.162.875.225.448.1.908.165,1.367.23.238.035.473.083.715.11A20.367,20.367,0,0,0,60,296a19.88,19.88,0,0,0,2.147-.12c.24-.025.475-.075.715-.11.46-.067.918-.133,1.367-.23.295-.063.583-.148.875-.225.378-.1.757-.2,1.125-.322.32-.1.633-.227.948-.348s.645-.252.96-.393.653-.3.973-.47q.428-.22.842-.46c.323-.187.642-.377.955-.58.265-.173.52-.358.777-.543.3-.217.6-.428.885-.662s.543-.473.812-.715c.24-.217.487-.422.717-.652q.715-.713,1.357-1.492c.02-.025.043-.045.063-.07s.012-.032.022-.045a19.9,19.9,0,0,0,.225-24.828Zm-26.3-.63c.17-.142.353-.265.53-.4.243-.185.483-.375.735-.545.328-.22.67-.42,1.013-.617.075-.043.147-.092.222-.132a20.642,20.642,0,0,0-1.708,3.472c-.695-.213-1.365-.443-1.985-.7C48.648,263.8,49.047,263.445,49.46,263.1Zm-3.377,3.75a24.158,24.158,0,0,0,3.175,1.215,32.839,32.839,0,0,0-.883,6.515H43.4A16.532,16.532,0,0,1,46.083,266.855Zm.227,18.625a16.541,16.541,0,0,1-2.857-7.563h4.935a32.055,32.055,0,0,0,.993,6.463A27.26,27.26,0,0,0,46.31,285.48Zm5.463,5c-.328-.188-.652-.38-.965-.587-.133-.088-.263-.185-.393-.278-.3-.21-.592-.427-.875-.655-.142-.115-.28-.238-.418-.358-.173-.15-.342-.307-.51-.463.577-.217,1.2-.395,1.82-.577a20.305,20.305,0,0,0,1.523,3.022C51.893,290.547,51.833,290.51,51.773,290.477Zm6.56,1.838c-1.817-.772-3.432-2.777-4.62-5.53a36.125,36.125,0,0,1,4.62-.468Zm0-9.357a39.131,39.131,0,0,0-5.71.642,29.25,29.25,0,0,1-.893-5.683h6.6Zm0-8.375H51.7a29.73,29.73,0,0,1,.8-5.712,38.429,38.429,0,0,0,5.827.668Zm0-8.37a35.594,35.594,0,0,1-4.815-.537c1.2-2.992,2.9-5.177,4.815-5.992Zm15.585.64a16.557,16.557,0,0,1,2.678,7.73h-4.97a32.84,32.84,0,0,0-.883-6.515A23.781,23.781,0,0,0,73.918,266.853Zm-5.655-5.308c.342.2.685.4,1.012.617.252.17.492.36.735.545.177.133.36.258.532.4.412.34.812.7,1.193,1.08-.618.258-1.29.487-1.985.7a20.642,20.642,0,0,0-1.708-3.472C68.117,261.455,68.188,261.5,68.263,261.545Zm-6.6-1.86c1.917.815,3.612,3,4.815,5.992a35.866,35.866,0,0,1-4.815.537Zm0,9.855a38.382,38.382,0,0,0,5.825-.668,29.6,29.6,0,0,1,.8,5.712H61.667Zm0,22.775v-6a36.125,36.125,0,0,1,4.62.468C65.1,289.538,63.482,291.543,61.667,292.315Zm0-9.357v-5.042h6.6a29.271,29.271,0,0,1-.893,5.683A39.131,39.131,0,0,0,61.667,282.958Zm9.212,5.64c-.138.12-.275.243-.418.358-.283.23-.577.445-.875.655-.132.093-.26.188-.393.278-.313.208-.637.4-.963.587l-.182.1a20.387,20.387,0,0,0,1.523-3.022c.62.182,1.242.36,1.82.577C71.222,288.292,71.053,288.448,70.878,288.6Zm2.813-3.118a27.71,27.71,0,0,0-3.072-1.1,32.054,32.054,0,0,0,.993-6.463h4.935A16.579,16.579,0,0,1,73.692,285.48Z" transform="translate(87.333 3354.333)"/>
    <path id="Path_113" data-name="Path 113" class="cls-1" d="M98.333,3.333H56.667V1.667A1.666,1.666,0,0,0,55,0H1.667A1.666,1.666,0,0,0,0,1.667V98.333A1.666,1.666,0,0,0,1.667,100H55a1.666,1.666,0,0,0,1.667-1.667V96.667H98.333A1.666,1.666,0,0,0,100,95V5A1.666,1.666,0,0,0,98.333,3.333Zm-45,93.333h-50V3.333h50Zm43.333-3.333h-40V6.667h40Z" transform="translate(119 3557)"/>
    <path id="Path_114" data-name="Path 114" class="cls-1" d="M67,163.333H37a1.668,1.668,0,0,1-1.667-1.667V160H32v1.667a5.006,5.006,0,0,0,5,5H67A1.667,1.667,0,1,1,67,170H57a5.006,5.006,0,0,0-5,5v1.667h3.333V175A1.668,1.668,0,0,1,57,173.333H67a5,5,0,1,0,0-10Z" transform="translate(93.667 3430.333)"/>
    <rect id="Rectangle_75" data-name="Rectangle 75" class="cls-1" width="3.333" height="3.333" transform="translate(125.667 3583.667)"/>
    <path id="Path_115" data-name="Path 115" class="cls-1" d="M341,80a5,5,0,1,0,5,5A5.006,5.006,0,0,0,341,80Zm0,6.667A1.667,1.667,0,1,1,342.667,85,1.668,1.668,0,0,1,341,86.667Z" transform="translate(-147 3493.667)"/>
    <path id="Path_116" data-name="Path 116" class="cls-1" d="M319.667,48h-30A1.666,1.666,0,0,0,288,49.667v35a1.666,1.666,0,0,0,1.667,1.667h30a1.666,1.666,0,0,0,1.667-1.667v-35A1.666,1.666,0,0,0,319.667,48ZM318,83H291.333V79.667H318Zm-25.218-6.667L296.333,71l3.552,5.328Zm13.225,0,5.327-8.522,5.327,8.522ZM318,72.188l-5.253-8.4a1.733,1.733,0,0,0-2.827,0l-6.965,11.145-5.235-7.852a1.729,1.729,0,0,0-2.773,0l-3.613,5.418V51.333H318Z" transform="translate(-109 3519)"/>
    <rect id="Rectangle_76" data-name="Rectangle 76" class="cls-1" width="30" height="3.333" transform="translate(180.667 3618.667)"/>
    <rect id="Rectangle_77" data-name="Rectangle 77" class="cls-1" width="30" height="3.333" transform="translate(180.867 3627)"/>
    <rect id="Rectangle_78" data-name="Rectangle 78" class="cls-1" width="30" height="3.333" transform="translate(180.667 3635.333)"/>
    <rect id="Rectangle_79" data-name="Rectangle 79" class="cls-1" width="3.333" height="3.333" transform="translate(187.333 3643.667)"/>
    <rect id="Rectangle_80" data-name="Rectangle 80" class="cls-1" width="3.333" height="3.333" transform="translate(194 3643.667)"/>
    <rect id="Rectangle_81" data-name="Rectangle 81" class="cls-1" width="3.333" height="3.333" transform="translate(200.667 3643.667)"/>
    <rect id="Rectangle_82" data-name="Rectangle 82" class="cls-1" width="20" height="3.333" transform="translate(185.667 3610.333)"/>
  </g>
</svg>
